<mxfile modified="2022-06-21T04:49:30.387Z" host="app.diagrams.net" agent="5.0 (Windows NT 10.0; Win64; x64) AppleWebKit/537.36 (KHTML, like Gecko) Chrome/102.0.0.0 Safari/537.36" etag="Knp2MmujBHB7nXqi5vYW" version="20.0.1" type="github" pages="2">
  <diagram id="C2fSY1v2SiZeoUbDoYyL" name="FG Process">
    <mxGraphModel dx="1422" dy="754" grid="1" gridSize="10" guides="1" tooltips="1" connect="1" arrows="1" fold="1" page="1" pageScale="1" pageWidth="1169" pageHeight="827" math="0" shadow="0">
      <root>
        <mxCell id="0" />
        <mxCell id="1" parent="0" />
        <mxCell id="3ne1QswCM8ZiEu4GHsYG-31" value="Company Goods Delivery Procedure" style="text;html=1;strokeColor=none;fillColor=none;align=center;verticalAlign=middle;whiteSpace=wrap;rounded=0;fontStyle=1;fontSize=20;fontColor=#4D4D4D;" parent="1" vertex="1">
          <mxGeometry x="189.5" y="50" width="790" height="30" as="geometry" />
        </mxCell>
        <mxCell id="3ne1QswCM8ZiEu4GHsYG-32" value="" style="line;strokeWidth=2;html=1;fontSize=20;fontColor=#4D4D4D;" parent="1" vertex="1">
          <mxGeometry x="103.5" y="80" width="960" height="10" as="geometry" />
        </mxCell>
        <mxCell id="kkBU5Qbpwik_OOVD1f4N-5" style="edgeStyle=orthogonalEdgeStyle;rounded=0;orthogonalLoop=1;jettySize=auto;html=1;entryX=0.5;entryY=0;entryDx=0;entryDy=0;" parent="1" source="kkBU5Qbpwik_OOVD1f4N-1" target="kkBU5Qbpwik_OOVD1f4N-4" edge="1">
          <mxGeometry relative="1" as="geometry" />
        </mxCell>
        <mxCell id="kkBU5Qbpwik_OOVD1f4N-27" style="edgeStyle=orthogonalEdgeStyle;rounded=0;orthogonalLoop=1;jettySize=auto;html=1;entryX=0.5;entryY=0;entryDx=0;entryDy=0;" parent="1" source="kkBU5Qbpwik_OOVD1f4N-1" target="kkBU5Qbpwik_OOVD1f4N-26" edge="1">
          <mxGeometry relative="1" as="geometry" />
        </mxCell>
        <mxCell id="kkBU5Qbpwik_OOVD1f4N-1" value="Sales Orders" style="shape=image;verticalLabelPosition=bottom;verticalAlign=top;aspect=fixed;image=data:image/svg+xml,PHN2ZyB4bWxucz0iaHR0cDovL3d3dy53My5vcmcvMjAwMC9zdmciIHhtbG5zOnhsaW5rPSJodHRwOi8vd3d3LnczLm9yZy8xOTk5L3hsaW5rIiB2ZXJzaW9uPSIxLjEiIGlkPSJMYXllcl8xIiB4PSIwcHgiIHk9IjBweCIgd2lkdGg9IjQ4cHgiIGhlaWdodD0iNDhweCIgdmlld0JveD0iMCAwIDQ4IDQ4IiBlbmFibGUtYmFja2dyb3VuZD0ibmV3IDAgMCA0OCA0OCIgeG1sOnNwYWNlPSJwcmVzZXJ2ZSI+JiN4YTs8ZyBpZD0iY29sb3JfMjhfIj4mI3hhOwk8Zz4mI3hhOwkJPHBhdGggZmlsbC1ydWxlPSJldmVub2RkIiBjbGlwLXJ1bGU9ImV2ZW5vZGQiIGZpbGw9IiNGMTYzNjIiIGQ9Ik00NCwzOEgzM1Y3YzAtMC41NTMtMC40NDctMS0xLTFIN0M2LjQ0Nyw2LDYsNi40NDcsNiw3djMyICAgIGMwLDMuNjY3LDEuOTM4LDUuNzUxLDUuNDM1LDUuOTU5QzEzLjk5Miw0NC41NDgsMTYsNDAuNjE1LDE2LDM4aDJjMCwzLjY2Ny0yLjgyLDYuNjctNi40MSw2Ljk3QzExLjcyOSw0NC45NzYsMTEuODU1LDQ1LDEyLDQ1aDI3ICAgIGMyLjg2NiwwLDYtMi4xMzQsNi01di0xQzQ1LDM4LjQ0Nyw0NC41NTMsMzgsNDQsMzh6Ii8+JiN4YTsJPC9nPiYjeGE7PC9nPiYjeGE7PGcgaWQ9Im91dGxpbmVfMjdfIj4mI3hhOwk8Zz4mI3hhOwkJPHBhdGggZmlsbD0iIzM4NEQ2OCIgZD0iTTIwLDE4SDljLTAuNTUzLDAtMSwwLjQ0Ny0xLDFzMC40NDcsMSwxLDFoMTFjMC41NTMsMCwxLTAuNDQ3LDEtMVMyMC41NTMsMTgsMjAsMTh6IE0yMCwyMkg5ICAgIGMtMC41NTMsMC0xLDAuNDQ3LTEsMXMwLjQ0NywxLDEsMWgxMWMwLjU1MywwLDEtMC40NDcsMS0xUzIwLjU1MywyMiwyMCwyMnogTTQ1LDM3SDM0VjNjMC0wLjU1My0wLjQ0Ny0xLTEtMUgzICAgIEMyLjQ0NywyLDIsMi40NDcsMiwzdjM2YzAsMy44NjYsMy4xMzQsNyw3LDdoMzBjMy44NjYsMCw3LTMuMTM0LDctN3YtMUM0NiwzNy40NDcsNDUuNTUzLDM3LDQ1LDM3eiBNOSw0NGMtMi43NjIsMC01LTIuMjM4LTUtNVY0ICAgIGgyOHYzM0gxNWMtMC41NTMsMC0xLDAuNDQ3LTEsMXYxQzE0LDQxLjc2MiwxMS43NjIsNDQsOSw0NHogTTM5LDQ0SDEzLjg5NUMxNS4xOTIsNDIuNzI5LDE2LDQwLjk2LDE2LDM5aDI4ICAgIEM0NCw0MS43NjIsNDEuNzYyLDQ0LDM5LDQ0eiBNMzAsMTNWN2MwLTAuNTUzLTAuNDQ3LTEtMS0xSDdDNi40NDcsNiw2LDYuNDQ3LDYsN3Y2YzAsMC41NTMsMC40NDcsMSwxLDFoMjIgICAgQzI5LjU1MywxNCwzMCwxMy41NTMsMzAsMTN6IE0xNywxMWMwLDAuNTUzLTAuNDQ3LDEtMSwxSDhWOGg4YzAuNTUzLDAsMSwwLjQ0NywxLDFWMTF6IE0yOCwxMmgtOGMtMC41NTMsMC0xLTAuNDQ3LTEtMVY5ICAgIGMwLTAuNTUzLDAuNDQ3LTEsMS0xaDhWMTJ6IE0xNiwyN2MwLTAuNTUzLTAuNDQ3LTEtMS0xSDljLTAuNTUzLDAtMSwwLjQ0Ny0xLDFzMC40NDcsMSwxLDFoNkMxNS41NTMsMjgsMTYsMjcuNTUzLDE2LDI3eiIvPiYjeGE7CTwvZz4mI3hhOzwvZz4mI3hhOzwvc3ZnPg==" parent="1" vertex="1">
          <mxGeometry x="260" y="140" width="48" height="48" as="geometry" />
        </mxCell>
        <mxCell id="kkBU5Qbpwik_OOVD1f4N-10" style="edgeStyle=orthogonalEdgeStyle;rounded=0;orthogonalLoop=1;jettySize=auto;html=1;" parent="1" source="kkBU5Qbpwik_OOVD1f4N-4" target="kkBU5Qbpwik_OOVD1f4N-13" edge="1">
          <mxGeometry relative="1" as="geometry">
            <mxPoint x="480" y="284" as="targetPoint" />
          </mxGeometry>
        </mxCell>
        <mxCell id="kkBU5Qbpwik_OOVD1f4N-24" style="edgeStyle=orthogonalEdgeStyle;rounded=0;orthogonalLoop=1;jettySize=auto;html=1;" parent="1" source="kkBU5Qbpwik_OOVD1f4N-4" target="kkBU5Qbpwik_OOVD1f4N-22" edge="1">
          <mxGeometry relative="1" as="geometry">
            <Array as="points">
              <mxPoint x="554" y="294" />
            </Array>
          </mxGeometry>
        </mxCell>
        <mxCell id="kkBU5Qbpwik_OOVD1f4N-4" value="Shop Floor Orders" style="shape=image;verticalLabelPosition=bottom;verticalAlign=top;aspect=fixed;image=data:image/svg+xml,PHN2ZyB4bWxucz0iaHR0cDovL3d3dy53My5vcmcvMjAwMC9zdmciIHhtbG5zOnhsaW5rPSJodHRwOi8vd3d3LnczLm9yZy8xOTk5L3hsaW5rIiB2ZXJzaW9uPSIxLjEiIGlkPSJMYXllcl8xIiB4PSIwcHgiIHk9IjBweCIgd2lkdGg9IjQ4cHgiIGhlaWdodD0iNDhweCIgdmlld0JveD0iMCAwIDQ4IDQ4IiBlbmFibGUtYmFja2dyb3VuZD0ibmV3IDAgMCA0OCA0OCIgeG1sOnNwYWNlPSJwcmVzZXJ2ZSI+JiN4YTs8ZyBpZD0iY29sb3JfNTFfIj4mI3hhOwk8Zz4mI3hhOwkJPHBhdGggZmlsbD0iIzg5OENDNSIgZD0iTTQzLDZoLTV2NGMwLDEuMTA0LTAuODk2LDItMiwyaC0yYy0xLjEwNCwwLTItMC44OTYtMi0yVjZIMTh2NGMwLDEuMTA0LTAuODk2LDItMiwyaC0yICAgIGMtMS4xMDQsMC0yLTAuODk2LTItMlY2SDlDOC40NDcsNiw4LDYuNDQ3LDgsN3YzOGMwLDAuNTUzLDAuNDQ3LDEsMSwxaDM0YzAuNTUzLDAsMS0wLjQ0NywxLTFWN0M0NCw2LjQ0Nyw0My41NTMsNiw0Myw2eiIvPiYjeGE7CTwvZz4mI3hhOzwvZz4mI3hhOzxnIGlkPSJvdXRsaW5lXzQ5XyI+JiN4YTsJPGc+JiN4YTsJCTxwYXRoIGZpbGw9IiMzODRENjgiIGQ9Ik0xNS43MTUsMjguMjg1Yy0wLjM3NS0wLjM3NS0wLjk4Mi0wLjM3NS0xLjM1NywwTDEzLDI5LjY0M2wtMS4zNTctMS4zNTcgICAgYy0wLjM3NS0wLjM3NS0wLjk4Mi0wLjM3NS0xLjM1NywwYy0wLjM3NSwwLjM3NC0wLjM3NSwwLjk4MiwwLDEuMzU3TDExLjY0MywzMWwtMS4zNTcsMS4zNTdjLTAuMzc1LDAuMzc1LTAuMzc1LDAuOTgzLDAsMS4zNTcgICAgYzAuMzc1LDAuMzc1LDAuOTgyLDAuMzc1LDEuMzU3LDBMMTMsMzIuMzU3bDEuMzU3LDEuMzU3YzAuMzc1LDAuMzc1LDAuOTgyLDAuMzc1LDEuMzU3LDBjMC4zNzUtMC4zNzQsMC4zNzUtMC45ODIsMC0xLjM1NyAgICBMMTQuMzU3LDMxbDEuMzU3LTEuMzU3QzE2LjA5LDI5LjI2OCwxNi4wOSwyOC42NTksMTUuNzE1LDI4LjI4NXogTTE1LjcxNSwxOC4yODVjLTAuMzc1LTAuMzc1LTAuOTgyLTAuMzc1LTEuMzU3LDBMMTMsMTkuNjQzICAgIGwtMS4zNTctMS4zNTdjLTAuMzc1LTAuMzc1LTAuOTgyLTAuMzc1LTEuMzU3LDBjLTAuMzc1LDAuMzc0LTAuMzc1LDAuOTgyLDAsMS4zNTdMMTEuNjQzLDIxbC0xLjM1NywxLjM1NyAgICBjLTAuMzc1LDAuMzc1LTAuMzc1LDAuOTgyLDAsMS4zNTdzMC45ODIsMC4zNzUsMS4zNTcsMEwxMywyMi4zNTdsMS4zNTcsMS4zNTdjMC4zNzUsMC4zNzUsMC45ODIsMC4zNzUsMS4zNTcsMCAgICBzMC4zNzUtMC45ODIsMC0xLjM1N0wxNC4zNTcsMjFsMS4zNTctMS4zNTdDMTYuMDksMTkuMjY4LDE2LjA5LDE4LjY1OSwxNS43MTUsMTguMjg1eiBNNDEsNmgtNVY0YzAtMS4xMDQtMC44OTYtMi0yLTJoLTIgICAgYy0xLjEwNCwwLTIsMC44OTYtMiwydjJIMTZWNGMwLTEuMTA0LTAuODk2LTItMi0yaC0yYy0xLjEwNCwwLTIsMC44OTYtMiwydjJINUM0LjQ0Nyw2LDQsNi40NDcsNCw3djM4YzAsMC41NTMsMC40NDcsMSwxLDFoMzYgICAgYzAuNTUzLDAsMS0wLjQ0NywxLTFWN0M0Miw2LjQ0Nyw0MS41NTMsNiw0MSw2eiBNMzIsNWMwLTAuNTUzLDAuNDQ3LTEsMS0xczEsMC40NDcsMSwxdjRjMCwwLjU1My0wLjQ0NywxLTEsMXMtMS0wLjQ0Ny0xLTFWNXogICAgIE0xMiw1YzAtMC41NTMsMC40NDctMSwxLTFzMSwwLjQ0NywxLDF2NGMwLDAuNTUzLTAuNDQ3LDEtMSwxcy0xLTAuNDQ3LTEtMVY1eiBNNDAsNDRINlY4aDR2MmMwLDEuMTA0LDAuODk2LDIsMiwyaDIgICAgYzEuMTA0LDAsMi0wLjg5NiwyLTJWOGgxNHYyYzAsMS4xMDQsMC44OTYsMiwyLDJoMmMxLjEwNCwwLDItMC44OTYsMi0yVjhoNFY0NHogTTM0LDIwSDIwYy0wLjU1MywwLTEsMC40NDctMSwxczAuNDQ3LDEsMSwxaDE0ICAgIGMwLjU1MywwLDEtMC40NDcsMS0xUzM0LjU1MywyMCwzNCwyMHogTTMwLDMwSDIwYy0wLjU1MywwLTEsMC40NDctMSwxczAuNDQ3LDEsMSwxaDEwYzAuNTUzLDAsMS0wLjQ0NywxLTFTMzAuNTUzLDMwLDMwLDMweiIvPiYjeGE7CTwvZz4mI3hhOzwvZz4mI3hhOzwvc3ZnPg==" parent="1" vertex="1">
          <mxGeometry x="410" y="270" width="48" height="48" as="geometry" />
        </mxCell>
        <mxCell id="kkBU5Qbpwik_OOVD1f4N-16" style="edgeStyle=orthogonalEdgeStyle;rounded=0;orthogonalLoop=1;jettySize=auto;html=1;" parent="1" source="kkBU5Qbpwik_OOVD1f4N-13" target="kkBU5Qbpwik_OOVD1f4N-15" edge="1">
          <mxGeometry relative="1" as="geometry" />
        </mxCell>
        <mxCell id="kkBU5Qbpwik_OOVD1f4N-13" value="WIP Incoming" style="shape=image;verticalLabelPosition=bottom;verticalAlign=top;aspect=fixed;image=data:image/svg+xml,PHN2ZyB4bWxucz0iaHR0cDovL3d3dy53My5vcmcvMjAwMC9zdmciIHhtbG5zOnhsaW5rPSJodHRwOi8vd3d3LnczLm9yZy8xOTk5L3hsaW5rIiB2ZXJzaW9uPSIxLjEiIGlkPSJMYXllcl8xIiB4PSIwcHgiIHk9IjBweCIgd2lkdGg9IjQ4cHgiIGhlaWdodD0iNDhweCIgdmlld0JveD0iMCAwIDQ4IDQ4IiBlbmFibGUtYmFja2dyb3VuZD0ibmV3IDAgMCA0OCA0OCIgeG1sOnNwYWNlPSJwcmVzZXJ2ZSI+JiN4YTs8ZyBpZD0iY29sb3JfNTFfIj4mI3hhOwk8Zz4mI3hhOwkJPHBhdGggZmlsbD0iIzg5OENDNSIgZD0iTTQzLDZoLTV2NGMwLDEuMTA0LTAuODk2LDItMiwyaC0yYy0xLjEwNCwwLTItMC44OTYtMi0yVjZIMTh2NGMwLDEuMTA0LTAuODk2LDItMiwyaC0yICAgIGMtMS4xMDQsMC0yLTAuODk2LTItMlY2SDlDOC40NDcsNiw4LDYuNDQ3LDgsN3YzOGMwLDAuNTUzLDAuNDQ3LDEsMSwxaDM0YzAuNTUzLDAsMS0wLjQ0NywxLTFWN0M0NCw2LjQ0Nyw0My41NTMsNiw0Myw2eiIvPiYjeGE7CTwvZz4mI3hhOzwvZz4mI3hhOzxnIGlkPSJvdXRsaW5lXzQ5XyI+JiN4YTsJPGc+JiN4YTsJCTxwYXRoIGZpbGw9IiMzODRENjgiIGQ9Ik0xNS43MTUsMjguMjg1Yy0wLjM3NS0wLjM3NS0wLjk4Mi0wLjM3NS0xLjM1NywwTDEzLDI5LjY0M2wtMS4zNTctMS4zNTcgICAgYy0wLjM3NS0wLjM3NS0wLjk4Mi0wLjM3NS0xLjM1NywwYy0wLjM3NSwwLjM3NC0wLjM3NSwwLjk4MiwwLDEuMzU3TDExLjY0MywzMWwtMS4zNTcsMS4zNTdjLTAuMzc1LDAuMzc1LTAuMzc1LDAuOTgzLDAsMS4zNTcgICAgYzAuMzc1LDAuMzc1LDAuOTgyLDAuMzc1LDEuMzU3LDBMMTMsMzIuMzU3bDEuMzU3LDEuMzU3YzAuMzc1LDAuMzc1LDAuOTgyLDAuMzc1LDEuMzU3LDBjMC4zNzUtMC4zNzQsMC4zNzUtMC45ODIsMC0xLjM1NyAgICBMMTQuMzU3LDMxbDEuMzU3LTEuMzU3QzE2LjA5LDI5LjI2OCwxNi4wOSwyOC42NTksMTUuNzE1LDI4LjI4NXogTTE1LjcxNSwxOC4yODVjLTAuMzc1LTAuMzc1LTAuOTgyLTAuMzc1LTEuMzU3LDBMMTMsMTkuNjQzICAgIGwtMS4zNTctMS4zNTdjLTAuMzc1LTAuMzc1LTAuOTgyLTAuMzc1LTEuMzU3LDBjLTAuMzc1LDAuMzc0LTAuMzc1LDAuOTgyLDAsMS4zNTdMMTEuNjQzLDIxbC0xLjM1NywxLjM1NyAgICBjLTAuMzc1LDAuMzc1LTAuMzc1LDAuOTgyLDAsMS4zNTdzMC45ODIsMC4zNzUsMS4zNTcsMEwxMywyMi4zNTdsMS4zNTcsMS4zNTdjMC4zNzUsMC4zNzUsMC45ODIsMC4zNzUsMS4zNTcsMCAgICBzMC4zNzUtMC45ODIsMC0xLjM1N0wxNC4zNTcsMjFsMS4zNTctMS4zNTdDMTYuMDksMTkuMjY4LDE2LjA5LDE4LjY1OSwxNS43MTUsMTguMjg1eiBNNDEsNmgtNVY0YzAtMS4xMDQtMC44OTYtMi0yLTJoLTIgICAgYy0xLjEwNCwwLTIsMC44OTYtMiwydjJIMTZWNGMwLTEuMTA0LTAuODk2LTItMi0yaC0yYy0xLjEwNCwwLTIsMC44OTYtMiwydjJINUM0LjQ0Nyw2LDQsNi40NDcsNCw3djM4YzAsMC41NTMsMC40NDcsMSwxLDFoMzYgICAgYzAuNTUzLDAsMS0wLjQ0NywxLTFWN0M0Miw2LjQ0Nyw0MS41NTMsNiw0MSw2eiBNMzIsNWMwLTAuNTUzLDAuNDQ3LTEsMS0xczEsMC40NDcsMSwxdjRjMCwwLjU1My0wLjQ0NywxLTEsMXMtMS0wLjQ0Ny0xLTFWNXogICAgIE0xMiw1YzAtMC41NTMsMC40NDctMSwxLTFzMSwwLjQ0NywxLDF2NGMwLDAuNTUzLTAuNDQ3LDEtMSwxcy0xLTAuNDQ3LTEtMVY1eiBNNDAsNDRINlY4aDR2MmMwLDEuMTA0LDAuODk2LDIsMiwyaDIgICAgYzEuMTA0LDAsMi0wLjg5NiwyLTJWOGgxNHYyYzAsMS4xMDQsMC44OTYsMiwyLDJoMmMxLjEwNCwwLDItMC44OTYsMi0yVjhoNFY0NHogTTM0LDIwSDIwYy0wLjU1MywwLTEsMC40NDctMSwxczAuNDQ3LDEsMSwxaDE0ICAgIGMwLjU1MywwLDEtMC40NDcsMS0xUzM0LjU1MywyMCwzNCwyMHogTTMwLDMwSDIwYy0wLjU1MywwLTEsMC40NDctMSwxczAuNDQ3LDEsMSwxaDEwYzAuNTUzLDAsMS0wLjQ0NywxLTFTMzAuNTUzLDMwLDMwLDMweiIvPiYjeGE7CTwvZz4mI3hhOzwvZz4mI3hhOzwvc3ZnPg==" parent="1" vertex="1">
          <mxGeometry x="290" y="340" width="48" height="48" as="geometry" />
        </mxCell>
        <mxCell id="kkBU5Qbpwik_OOVD1f4N-19" style="edgeStyle=orthogonalEdgeStyle;rounded=0;orthogonalLoop=1;jettySize=auto;html=1;" parent="1" source="kkBU5Qbpwik_OOVD1f4N-15" target="kkBU5Qbpwik_OOVD1f4N-17" edge="1">
          <mxGeometry relative="1" as="geometry" />
        </mxCell>
        <mxCell id="kkBU5Qbpwik_OOVD1f4N-15" value="SFO WIP (Internal)" style="shape=image;verticalLabelPosition=bottom;verticalAlign=top;aspect=fixed;image=data:image/svg+xml,PHN2ZyB4bWxucz0iaHR0cDovL3d3dy53My5vcmcvMjAwMC9zdmciIHhtbG5zOnhsaW5rPSJodHRwOi8vd3d3LnczLm9yZy8xOTk5L3hsaW5rIiB2ZXJzaW9uPSIxLjEiIGlkPSJMYXllcl8xIiB4PSIwcHgiIHk9IjBweCIgd2lkdGg9IjQ4cHgiIGhlaWdodD0iNDhweCIgdmlld0JveD0iMCAwIDQ4IDQ4IiBlbmFibGUtYmFja2dyb3VuZD0ibmV3IDAgMCA0OCA0OCIgeG1sOnNwYWNlPSJwcmVzZXJ2ZSI+JiN4YTs8ZyBpZD0iY29sb3JfNTFfIj4mI3hhOwk8Zz4mI3hhOwkJPHBhdGggZmlsbD0iIzg5OENDNSIgZD0iTTQzLDZoLTV2NGMwLDEuMTA0LTAuODk2LDItMiwyaC0yYy0xLjEwNCwwLTItMC44OTYtMi0yVjZIMTh2NGMwLDEuMTA0LTAuODk2LDItMiwyaC0yICAgIGMtMS4xMDQsMC0yLTAuODk2LTItMlY2SDlDOC40NDcsNiw4LDYuNDQ3LDgsN3YzOGMwLDAuNTUzLDAuNDQ3LDEsMSwxaDM0YzAuNTUzLDAsMS0wLjQ0NywxLTFWN0M0NCw2LjQ0Nyw0My41NTMsNiw0Myw2eiIvPiYjeGE7CTwvZz4mI3hhOzwvZz4mI3hhOzxnIGlkPSJvdXRsaW5lXzQ5XyI+JiN4YTsJPGc+JiN4YTsJCTxwYXRoIGZpbGw9IiMzODRENjgiIGQ9Ik0xNS43MTUsMjguMjg1Yy0wLjM3NS0wLjM3NS0wLjk4Mi0wLjM3NS0xLjM1NywwTDEzLDI5LjY0M2wtMS4zNTctMS4zNTcgICAgYy0wLjM3NS0wLjM3NS0wLjk4Mi0wLjM3NS0xLjM1NywwYy0wLjM3NSwwLjM3NC0wLjM3NSwwLjk4MiwwLDEuMzU3TDExLjY0MywzMWwtMS4zNTcsMS4zNTdjLTAuMzc1LDAuMzc1LTAuMzc1LDAuOTgzLDAsMS4zNTcgICAgYzAuMzc1LDAuMzc1LDAuOTgyLDAuMzc1LDEuMzU3LDBMMTMsMzIuMzU3bDEuMzU3LDEuMzU3YzAuMzc1LDAuMzc1LDAuOTgyLDAuMzc1LDEuMzU3LDBjMC4zNzUtMC4zNzQsMC4zNzUtMC45ODIsMC0xLjM1NyAgICBMMTQuMzU3LDMxbDEuMzU3LTEuMzU3QzE2LjA5LDI5LjI2OCwxNi4wOSwyOC42NTksMTUuNzE1LDI4LjI4NXogTTE1LjcxNSwxOC4yODVjLTAuMzc1LTAuMzc1LTAuOTgyLTAuMzc1LTEuMzU3LDBMMTMsMTkuNjQzICAgIGwtMS4zNTctMS4zNTdjLTAuMzc1LTAuMzc1LTAuOTgyLTAuMzc1LTEuMzU3LDBjLTAuMzc1LDAuMzc0LTAuMzc1LDAuOTgyLDAsMS4zNTdMMTEuNjQzLDIxbC0xLjM1NywxLjM1NyAgICBjLTAuMzc1LDAuMzc1LTAuMzc1LDAuOTgyLDAsMS4zNTdzMC45ODIsMC4zNzUsMS4zNTcsMEwxMywyMi4zNTdsMS4zNTcsMS4zNTdjMC4zNzUsMC4zNzUsMC45ODIsMC4zNzUsMS4zNTcsMCAgICBzMC4zNzUtMC45ODIsMC0xLjM1N0wxNC4zNTcsMjFsMS4zNTctMS4zNTdDMTYuMDksMTkuMjY4LDE2LjA5LDE4LjY1OSwxNS43MTUsMTguMjg1eiBNNDEsNmgtNVY0YzAtMS4xMDQtMC44OTYtMi0yLTJoLTIgICAgYy0xLjEwNCwwLTIsMC44OTYtMiwydjJIMTZWNGMwLTEuMTA0LTAuODk2LTItMi0yaC0yYy0xLjEwNCwwLTIsMC44OTYtMiwydjJINUM0LjQ0Nyw2LDQsNi40NDcsNCw3djM4YzAsMC41NTMsMC40NDcsMSwxLDFoMzYgICAgYzAuNTUzLDAsMS0wLjQ0NywxLTFWN0M0Miw2LjQ0Nyw0MS41NTMsNiw0MSw2eiBNMzIsNWMwLTAuNTUzLDAuNDQ3LTEsMS0xczEsMC40NDcsMSwxdjRjMCwwLjU1My0wLjQ0NywxLTEsMXMtMS0wLjQ0Ny0xLTFWNXogICAgIE0xMiw1YzAtMC41NTMsMC40NDctMSwxLTFzMSwwLjQ0NywxLDF2NGMwLDAuNTUzLTAuNDQ3LDEtMSwxcy0xLTAuNDQ3LTEtMVY1eiBNNDAsNDRINlY4aDR2MmMwLDEuMTA0LDAuODk2LDIsMiwyaDIgICAgYzEuMTA0LDAsMi0wLjg5NiwyLTJWOGgxNHYyYzAsMS4xMDQsMC44OTYsMiwyLDJoMmMxLjEwNCwwLDItMC44OTYsMi0yVjhoNFY0NHogTTM0LDIwSDIwYy0wLjU1MywwLTEsMC40NDctMSwxczAuNDQ3LDEsMSwxaDE0ICAgIGMwLjU1MywwLDEtMC40NDcsMS0xUzM0LjU1MywyMCwzNCwyMHogTTMwLDMwSDIwYy0wLjU1MywwLTEsMC40NDctMSwxczAuNDQ3LDEsMSwxaDEwYzAuNTUzLDAsMS0wLjQ0NywxLTFTMzAuNTUzLDMwLDMwLDMweiIvPiYjeGE7CTwvZz4mI3hhOzwvZz4mI3hhOzwvc3ZnPg==" parent="1" vertex="1">
          <mxGeometry x="290" y="460" width="48" height="48" as="geometry" />
        </mxCell>
        <mxCell id="kkBU5Qbpwik_OOVD1f4N-21" style="edgeStyle=orthogonalEdgeStyle;rounded=0;orthogonalLoop=1;jettySize=auto;html=1;" parent="1" source="kkBU5Qbpwik_OOVD1f4N-17" target="kkBU5Qbpwik_OOVD1f4N-20" edge="1">
          <mxGeometry relative="1" as="geometry" />
        </mxCell>
        <mxCell id="kkBU5Qbpwik_OOVD1f4N-17" value="WIP Outgoing" style="shape=image;verticalLabelPosition=bottom;verticalAlign=top;aspect=fixed;image=data:image/svg+xml,PHN2ZyB4bWxucz0iaHR0cDovL3d3dy53My5vcmcvMjAwMC9zdmciIHhtbG5zOnhsaW5rPSJodHRwOi8vd3d3LnczLm9yZy8xOTk5L3hsaW5rIiB2ZXJzaW9uPSIxLjEiIGlkPSJMYXllcl8xIiB4PSIwcHgiIHk9IjBweCIgd2lkdGg9IjQ4cHgiIGhlaWdodD0iNDhweCIgdmlld0JveD0iMCAwIDQ4IDQ4IiBlbmFibGUtYmFja2dyb3VuZD0ibmV3IDAgMCA0OCA0OCIgeG1sOnNwYWNlPSJwcmVzZXJ2ZSI+JiN4YTs8ZyBpZD0iY29sb3JfNTFfIj4mI3hhOwk8Zz4mI3hhOwkJPHBhdGggZmlsbD0iIzg5OENDNSIgZD0iTTQzLDZoLTV2NGMwLDEuMTA0LTAuODk2LDItMiwyaC0yYy0xLjEwNCwwLTItMC44OTYtMi0yVjZIMTh2NGMwLDEuMTA0LTAuODk2LDItMiwyaC0yICAgIGMtMS4xMDQsMC0yLTAuODk2LTItMlY2SDlDOC40NDcsNiw4LDYuNDQ3LDgsN3YzOGMwLDAuNTUzLDAuNDQ3LDEsMSwxaDM0YzAuNTUzLDAsMS0wLjQ0NywxLTFWN0M0NCw2LjQ0Nyw0My41NTMsNiw0Myw2eiIvPiYjeGE7CTwvZz4mI3hhOzwvZz4mI3hhOzxnIGlkPSJvdXRsaW5lXzQ5XyI+JiN4YTsJPGc+JiN4YTsJCTxwYXRoIGZpbGw9IiMzODRENjgiIGQ9Ik0xNS43MTUsMjguMjg1Yy0wLjM3NS0wLjM3NS0wLjk4Mi0wLjM3NS0xLjM1NywwTDEzLDI5LjY0M2wtMS4zNTctMS4zNTcgICAgYy0wLjM3NS0wLjM3NS0wLjk4Mi0wLjM3NS0xLjM1NywwYy0wLjM3NSwwLjM3NC0wLjM3NSwwLjk4MiwwLDEuMzU3TDExLjY0MywzMWwtMS4zNTcsMS4zNTdjLTAuMzc1LDAuMzc1LTAuMzc1LDAuOTgzLDAsMS4zNTcgICAgYzAuMzc1LDAuMzc1LDAuOTgyLDAuMzc1LDEuMzU3LDBMMTMsMzIuMzU3bDEuMzU3LDEuMzU3YzAuMzc1LDAuMzc1LDAuOTgyLDAuMzc1LDEuMzU3LDBjMC4zNzUtMC4zNzQsMC4zNzUtMC45ODIsMC0xLjM1NyAgICBMMTQuMzU3LDMxbDEuMzU3LTEuMzU3QzE2LjA5LDI5LjI2OCwxNi4wOSwyOC42NTksMTUuNzE1LDI4LjI4NXogTTE1LjcxNSwxOC4yODVjLTAuMzc1LTAuMzc1LTAuOTgyLTAuMzc1LTEuMzU3LDBMMTMsMTkuNjQzICAgIGwtMS4zNTctMS4zNTdjLTAuMzc1LTAuMzc1LTAuOTgyLTAuMzc1LTEuMzU3LDBjLTAuMzc1LDAuMzc0LTAuMzc1LDAuOTgyLDAsMS4zNTdMMTEuNjQzLDIxbC0xLjM1NywxLjM1NyAgICBjLTAuMzc1LDAuMzc1LTAuMzc1LDAuOTgyLDAsMS4zNTdzMC45ODIsMC4zNzUsMS4zNTcsMEwxMywyMi4zNTdsMS4zNTcsMS4zNTdjMC4zNzUsMC4zNzUsMC45ODIsMC4zNzUsMS4zNTcsMCAgICBzMC4zNzUtMC45ODIsMC0xLjM1N0wxNC4zNTcsMjFsMS4zNTctMS4zNTdDMTYuMDksMTkuMjY4LDE2LjA5LDE4LjY1OSwxNS43MTUsMTguMjg1eiBNNDEsNmgtNVY0YzAtMS4xMDQtMC44OTYtMi0yLTJoLTIgICAgYy0xLjEwNCwwLTIsMC44OTYtMiwydjJIMTZWNGMwLTEuMTA0LTAuODk2LTItMi0yaC0yYy0xLjEwNCwwLTIsMC44OTYtMiwydjJINUM0LjQ0Nyw2LDQsNi40NDcsNCw3djM4YzAsMC41NTMsMC40NDcsMSwxLDFoMzYgICAgYzAuNTUzLDAsMS0wLjQ0NywxLTFWN0M0Miw2LjQ0Nyw0MS41NTMsNiw0MSw2eiBNMzIsNWMwLTAuNTUzLDAuNDQ3LTEsMS0xczEsMC40NDcsMSwxdjRjMCwwLjU1My0wLjQ0NywxLTEsMXMtMS0wLjQ0Ny0xLTFWNXogICAgIE0xMiw1YzAtMC41NTMsMC40NDctMSwxLTFzMSwwLjQ0NywxLDF2NGMwLDAuNTUzLTAuNDQ3LDEtMSwxcy0xLTAuNDQ3LTEtMVY1eiBNNDAsNDRINlY4aDR2MmMwLDEuMTA0LDAuODk2LDIsMiwyaDIgICAgYzEuMTA0LDAsMi0wLjg5NiwyLTJWOGgxNHYyYzAsMS4xMDQsMC44OTYsMiwyLDJoMmMxLjEwNCwwLDItMC44OTYsMi0yVjhoNFY0NHogTTM0LDIwSDIwYy0wLjU1MywwLTEsMC40NDctMSwxczAuNDQ3LDEsMSwxaDE0ICAgIGMwLjU1MywwLDEtMC40NDcsMS0xUzM0LjU1MywyMCwzNCwyMHogTTMwLDMwSDIwYy0wLjU1MywwLTEsMC40NDctMSwxczAuNDQ3LDEsMSwxaDEwYzAuNTUzLDAsMS0wLjQ0NywxLTFTMzAuNTUzLDMwLDMwLDMweiIvPiYjeGE7CTwvZz4mI3hhOzwvZz4mI3hhOzwvc3ZnPg==" parent="1" vertex="1">
          <mxGeometry x="290" y="580" width="48" height="48" as="geometry" />
        </mxCell>
        <mxCell id="kkBU5Qbpwik_OOVD1f4N-25" style="edgeStyle=orthogonalEdgeStyle;rounded=0;orthogonalLoop=1;jettySize=auto;html=1;entryX=0;entryY=0.5;entryDx=0;entryDy=0;" parent="1" source="kkBU5Qbpwik_OOVD1f4N-20" target="kkBU5Qbpwik_OOVD1f4N-22" edge="1">
          <mxGeometry relative="1" as="geometry" />
        </mxCell>
        <mxCell id="kkBU5Qbpwik_OOVD1f4N-20" value="Proses WIP" style="shape=image;verticalLabelPosition=bottom;verticalAlign=top;aspect=fixed;image=data:image/svg+xml,PHN2ZyB4bWxucz0iaHR0cDovL3d3dy53My5vcmcvMjAwMC9zdmciIHhtbG5zOnhsaW5rPSJodHRwOi8vd3d3LnczLm9yZy8xOTk5L3hsaW5rIiB2ZXJzaW9uPSIxLjEiIGlkPSJMYXllcl8xIiB4PSIwcHgiIHk9IjBweCIgd2lkdGg9IjQ4cHgiIGhlaWdodD0iNDhweCIgdmlld0JveD0iMCAwIDQ4IDQ4IiBlbmFibGUtYmFja2dyb3VuZD0ibmV3IDAgMCA0OCA0OCIgeG1sOnNwYWNlPSJwcmVzZXJ2ZSI+JiN4YTs8ZyBpZD0iY29sb3JfMjNfIj4mI3hhOwk8Zz4mI3hhOwkJPHBhdGggZmlsbD0iI0ZGREE4RSIgZD0iTTQxLDI5VjdjMC0wLjU1My0wLjQ0Ny0xLTEtMUgyNHY3YzAsMC41NTMtMC40NDcsMS0xLDFoLTNjLTAuNTUzLDAtMS0wLjQ0Ny0xLTFWNmgtNSAgICBjLTAuNTUzLDAtMSwwLjQ0Ny0xLDF2MjJjMCwwLjU1MywwLjQ0NywxLDEsMWgyNkM0MC41NTMsMzAsNDEsMjkuNTUzLDQxLDI5eiBNMTAuNSwzN0M5LjExOSwzNyw4LDM4LjExOSw4LDM5LjVTOS4xMTksNDIsMTAuNSw0MiAgICBzMi41LTEuMTE5LDIuNS0yLjVTMTEuODgxLDM3LDEwLjUsMzd6IE0yMC41LDM3Yy0xLjM4MSwwLTIuNSwxLjExOS0yLjUsMi41czEuMTE5LDIuNSwyLjUsMi41czIuNS0xLjExOSwyLjUtMi41ICAgIFMyMS44ODEsMzcsMjAuNSwzN3ogTTMwLjUsMzdjLTEuMzgxLDAtMi41LDEuMTE5LTIuNSwyLjVzMS4xMTksMi41LDIuNSwyLjVzMi41LTEuMTE5LDIuNS0yLjVTMzEuODgxLDM3LDMwLjUsMzd6IE00MC41LDM3ICAgIGMtMS4zODEsMC0yLjUsMS4xMTktMi41LDIuNXMxLjExOSwyLjUsMi41LDIuNXMyLjUtMS4xMTksMi41LTIuNVM0MS44ODEsMzcsNDAuNSwzN3oiLz4mI3hhOwk8L2c+JiN4YTs8L2c+JiN4YTs8ZyBpZD0ib3V0bGluZV8yMl8iPiYjeGE7CTxnPiYjeGE7CQk8cGF0aCBmaWxsLXJ1bGU9ImV2ZW5vZGQiIGNsaXAtcnVsZT0iZXZlbm9kZCIgZmlsbD0iIzM4NEQ2OCIgZD0iTTIyLDM4YzAtMS42NTctMS4zNDQtMy0zLTNzLTMsMS4zNDMtMywzczEuMzQ0LDMsMywzICAgIFMyMiwzOS42NTcsMjIsMzh6IE0xOCwzOGMwLTAuNTUzLDAuNDQ3LTEsMS0xczEsMC40NDcsMSwxcy0wLjQ0NywxLTEsMVMxOCwzOC41NTMsMTgsMzh6IE00MiwzOGMwLTEuNjU3LTEuMzQzLTMtMy0zICAgIHMtMywxLjM0My0zLDNzMS4zNDMsMywzLDNTNDIsMzkuNjU3LDQyLDM4eiBNMzgsMzhjMC0wLjU1MywwLjQ0Ny0xLDEtMXMxLDAuNDQ3LDEsMXMtMC40NDcsMS0xLDFTMzgsMzguNTUzLDM4LDM4eiBNMzIsMzggICAgYzAtMS42NTctMS4zNDMtMy0zLTNzLTMsMS4zNDMtMywzczEuMzQzLDMsMywzUzMyLDM5LjY1NywzMiwzOHogTTI4LDM4YzAtMC41NTMsMC40NDctMSwxLTFzMSwwLjQ0NywxLDFzLTAuNDQ3LDEtMSwxICAgIFMyOCwzOC41NTMsMjgsMzh6IE0xMiwzOGMwLTEuNjU3LTEuMzQ0LTMtMy0zcy0zLDEuMzQzLTMsM3MxLjM0NCwzLDMsM1MxMiwzOS42NTcsMTIsMzh6IE04LDM4YzAtMC41NTMsMC40NDctMSwxLTFzMSwwLjQ0NywxLDEgICAgcy0wLjQ0NywxLTEsMVM4LDM4LjU1Myw4LDM4eiBNMzksMzFIM2MtMC41NTMsMC0xLDAuNDQ3LTEsMXMwLjQ0NywxLDEsMWgzNmMyLjc2MiwwLDUsMi4yMzgsNSw1cy0yLjIzOCw1LTUsNUgzICAgIGMtMC41NTMsMC0xLDAuNDQ3LTEsMXMwLjQ0NywxLDEsMWgzNmMzLjg2NiwwLDctMy4xMzQsNy03UzQyLjg2NiwzMSwzOSwzMXogTTEwLDI5aDI4YzAuNTUzLDAsMS0wLjQ0NywxLTFWNGMwLTAuNTUzLTAuNDQ3LTEtMS0xICAgIEgxMEM5LjQ0NywzLDksMy40NDcsOSw0djI0QzksMjguNTUzLDkuNDQ3LDI5LDEwLDI5eiBNMjksNmMwLTAuNTUzLDAuNDQ3LTEsMS0xaDd2MjJoLTdjLTAuNTUzLDAtMS0wLjQ0Ny0xLTFWNnogTTE4LDVoMnY2aC0yVjV6ICAgICBNMTEsNWg1djdjMCwwLjU1MywwLjQ0NywxLDEsMWg0YzAuNTUzLDAsMS0wLjQ0NywxLTFWNWg0YzAuNTUzLDAsMSwwLjQ0NywxLDF2MjBjMCwwLjU1My0wLjQ0NywxLTEsMUgxMVY1eiIvPiYjeGE7CTwvZz4mI3hhOzwvZz4mI3hhOzwvc3ZnPg==" parent="1" vertex="1">
          <mxGeometry x="410" y="580" width="48" height="48" as="geometry" />
        </mxCell>
        <mxCell id="kkBU5Qbpwik_OOVD1f4N-32" style="edgeStyle=orthogonalEdgeStyle;rounded=0;orthogonalLoop=1;jettySize=auto;html=1;" parent="1" source="kkBU5Qbpwik_OOVD1f4N-22" target="kkBU5Qbpwik_OOVD1f4N-31" edge="1">
          <mxGeometry relative="1" as="geometry" />
        </mxCell>
        <mxCell id="kkBU5Qbpwik_OOVD1f4N-22" value="FG Incoming" style="shape=image;verticalLabelPosition=bottom;verticalAlign=top;aspect=fixed;image=data:image/svg+xml,PHN2ZyB4bWxucz0iaHR0cDovL3d3dy53My5vcmcvMjAwMC9zdmciIHhtbG5zOnhsaW5rPSJodHRwOi8vd3d3LnczLm9yZy8xOTk5L3hsaW5rIiB2ZXJzaW9uPSIxLjEiIGlkPSJMYXllcl8xIiB4PSIwcHgiIHk9IjBweCIgd2lkdGg9IjQ4cHgiIGhlaWdodD0iNDhweCIgdmlld0JveD0iMCAwIDQ4IDQ4IiBlbmFibGUtYmFja2dyb3VuZD0ibmV3IDAgMCA0OCA0OCIgeG1sOnNwYWNlPSJwcmVzZXJ2ZSI+JiN4YTs8ZyBpZD0iY29sb3JfNTFfIj4mI3hhOwk8Zz4mI3hhOwkJPHBhdGggZmlsbD0iIzg5OENDNSIgZD0iTTQzLDZoLTV2NGMwLDEuMTA0LTAuODk2LDItMiwyaC0yYy0xLjEwNCwwLTItMC44OTYtMi0yVjZIMTh2NGMwLDEuMTA0LTAuODk2LDItMiwyaC0yICAgIGMtMS4xMDQsMC0yLTAuODk2LTItMlY2SDlDOC40NDcsNiw4LDYuNDQ3LDgsN3YzOGMwLDAuNTUzLDAuNDQ3LDEsMSwxaDM0YzAuNTUzLDAsMS0wLjQ0NywxLTFWN0M0NCw2LjQ0Nyw0My41NTMsNiw0Myw2eiIvPiYjeGE7CTwvZz4mI3hhOzwvZz4mI3hhOzxnIGlkPSJvdXRsaW5lXzQ5XyI+JiN4YTsJPGc+JiN4YTsJCTxwYXRoIGZpbGw9IiMzODRENjgiIGQ9Ik0xNS43MTUsMjguMjg1Yy0wLjM3NS0wLjM3NS0wLjk4Mi0wLjM3NS0xLjM1NywwTDEzLDI5LjY0M2wtMS4zNTctMS4zNTcgICAgYy0wLjM3NS0wLjM3NS0wLjk4Mi0wLjM3NS0xLjM1NywwYy0wLjM3NSwwLjM3NC0wLjM3NSwwLjk4MiwwLDEuMzU3TDExLjY0MywzMWwtMS4zNTcsMS4zNTdjLTAuMzc1LDAuMzc1LTAuMzc1LDAuOTgzLDAsMS4zNTcgICAgYzAuMzc1LDAuMzc1LDAuOTgyLDAuMzc1LDEuMzU3LDBMMTMsMzIuMzU3bDEuMzU3LDEuMzU3YzAuMzc1LDAuMzc1LDAuOTgyLDAuMzc1LDEuMzU3LDBjMC4zNzUtMC4zNzQsMC4zNzUtMC45ODIsMC0xLjM1NyAgICBMMTQuMzU3LDMxbDEuMzU3LTEuMzU3QzE2LjA5LDI5LjI2OCwxNi4wOSwyOC42NTksMTUuNzE1LDI4LjI4NXogTTE1LjcxNSwxOC4yODVjLTAuMzc1LTAuMzc1LTAuOTgyLTAuMzc1LTEuMzU3LDBMMTMsMTkuNjQzICAgIGwtMS4zNTctMS4zNTdjLTAuMzc1LTAuMzc1LTAuOTgyLTAuMzc1LTEuMzU3LDBjLTAuMzc1LDAuMzc0LTAuMzc1LDAuOTgyLDAsMS4zNTdMMTEuNjQzLDIxbC0xLjM1NywxLjM1NyAgICBjLTAuMzc1LDAuMzc1LTAuMzc1LDAuOTgyLDAsMS4zNTdzMC45ODIsMC4zNzUsMS4zNTcsMEwxMywyMi4zNTdsMS4zNTcsMS4zNTdjMC4zNzUsMC4zNzUsMC45ODIsMC4zNzUsMS4zNTcsMCAgICBzMC4zNzUtMC45ODIsMC0xLjM1N0wxNC4zNTcsMjFsMS4zNTctMS4zNTdDMTYuMDksMTkuMjY4LDE2LjA5LDE4LjY1OSwxNS43MTUsMTguMjg1eiBNNDEsNmgtNVY0YzAtMS4xMDQtMC44OTYtMi0yLTJoLTIgICAgYy0xLjEwNCwwLTIsMC44OTYtMiwydjJIMTZWNGMwLTEuMTA0LTAuODk2LTItMi0yaC0yYy0xLjEwNCwwLTIsMC44OTYtMiwydjJINUM0LjQ0Nyw2LDQsNi40NDcsNCw3djM4YzAsMC41NTMsMC40NDcsMSwxLDFoMzYgICAgYzAuNTUzLDAsMS0wLjQ0NywxLTFWN0M0Miw2LjQ0Nyw0MS41NTMsNiw0MSw2eiBNMzIsNWMwLTAuNTUzLDAuNDQ3LTEsMS0xczEsMC40NDcsMSwxdjRjMCwwLjU1My0wLjQ0NywxLTEsMXMtMS0wLjQ0Ny0xLTFWNXogICAgIE0xMiw1YzAtMC41NTMsMC40NDctMSwxLTFzMSwwLjQ0NywxLDF2NGMwLDAuNTUzLTAuNDQ3LDEtMSwxcy0xLTAuNDQ3LTEtMVY1eiBNNDAsNDRINlY4aDR2MmMwLDEuMTA0LDAuODk2LDIsMiwyaDIgICAgYzEuMTA0LDAsMi0wLjg5NiwyLTJWOGgxNHYyYzAsMS4xMDQsMC44OTYsMiwyLDJoMmMxLjEwNCwwLDItMC44OTYsMi0yVjhoNFY0NHogTTM0LDIwSDIwYy0wLjU1MywwLTEsMC40NDctMSwxczAuNDQ3LDEsMSwxaDE0ICAgIGMwLjU1MywwLDEtMC40NDcsMS0xUzM0LjU1MywyMCwzNCwyMHogTTMwLDMwSDIwYy0wLjU1MywwLTEsMC40NDctMSwxczAuNDQ3LDEsMSwxaDEwYzAuNTUzLDAsMS0wLjQ0NywxLTFTMzAuNTUzLDMwLDMwLDMweiIvPiYjeGE7CTwvZz4mI3hhOzwvZz4mI3hhOzwvc3ZnPg==" parent="1" vertex="1">
          <mxGeometry x="530" y="580" width="48" height="48" as="geometry" />
        </mxCell>
        <mxCell id="kkBU5Qbpwik_OOVD1f4N-29" style="edgeStyle=orthogonalEdgeStyle;rounded=0;orthogonalLoop=1;jettySize=auto;html=1;" parent="1" source="kkBU5Qbpwik_OOVD1f4N-26" target="kkBU5Qbpwik_OOVD1f4N-28" edge="1">
          <mxGeometry relative="1" as="geometry" />
        </mxCell>
        <mxCell id="kkBU5Qbpwik_OOVD1f4N-26" value="WIP Incoming (Customer)" style="shape=image;verticalLabelPosition=bottom;verticalAlign=top;aspect=fixed;image=data:image/svg+xml,PHN2ZyB4bWxucz0iaHR0cDovL3d3dy53My5vcmcvMjAwMC9zdmciIHhtbG5zOnhsaW5rPSJodHRwOi8vd3d3LnczLm9yZy8xOTk5L3hsaW5rIiB2ZXJzaW9uPSIxLjEiIGlkPSJMYXllcl8xIiB4PSIwcHgiIHk9IjBweCIgd2lkdGg9IjQ4cHgiIGhlaWdodD0iNDhweCIgdmlld0JveD0iMCAwIDQ4IDQ4IiBlbmFibGUtYmFja2dyb3VuZD0ibmV3IDAgMCA0OCA0OCIgeG1sOnNwYWNlPSJwcmVzZXJ2ZSI+JiN4YTs8ZyBpZD0iY29sb3JfNTFfIj4mI3hhOwk8Zz4mI3hhOwkJPHBhdGggZmlsbD0iIzg5OENDNSIgZD0iTTQzLDZoLTV2NGMwLDEuMTA0LTAuODk2LDItMiwyaC0yYy0xLjEwNCwwLTItMC44OTYtMi0yVjZIMTh2NGMwLDEuMTA0LTAuODk2LDItMiwyaC0yICAgIGMtMS4xMDQsMC0yLTAuODk2LTItMlY2SDlDOC40NDcsNiw4LDYuNDQ3LDgsN3YzOGMwLDAuNTUzLDAuNDQ3LDEsMSwxaDM0YzAuNTUzLDAsMS0wLjQ0NywxLTFWN0M0NCw2LjQ0Nyw0My41NTMsNiw0Myw2eiIvPiYjeGE7CTwvZz4mI3hhOzwvZz4mI3hhOzxnIGlkPSJvdXRsaW5lXzQ5XyI+JiN4YTsJPGc+JiN4YTsJCTxwYXRoIGZpbGw9IiMzODRENjgiIGQ9Ik0xNS43MTUsMjguMjg1Yy0wLjM3NS0wLjM3NS0wLjk4Mi0wLjM3NS0xLjM1NywwTDEzLDI5LjY0M2wtMS4zNTctMS4zNTcgICAgYy0wLjM3NS0wLjM3NS0wLjk4Mi0wLjM3NS0xLjM1NywwYy0wLjM3NSwwLjM3NC0wLjM3NSwwLjk4MiwwLDEuMzU3TDExLjY0MywzMWwtMS4zNTcsMS4zNTdjLTAuMzc1LDAuMzc1LTAuMzc1LDAuOTgzLDAsMS4zNTcgICAgYzAuMzc1LDAuMzc1LDAuOTgyLDAuMzc1LDEuMzU3LDBMMTMsMzIuMzU3bDEuMzU3LDEuMzU3YzAuMzc1LDAuMzc1LDAuOTgyLDAuMzc1LDEuMzU3LDBjMC4zNzUtMC4zNzQsMC4zNzUtMC45ODIsMC0xLjM1NyAgICBMMTQuMzU3LDMxbDEuMzU3LTEuMzU3QzE2LjA5LDI5LjI2OCwxNi4wOSwyOC42NTksMTUuNzE1LDI4LjI4NXogTTE1LjcxNSwxOC4yODVjLTAuMzc1LTAuMzc1LTAuOTgyLTAuMzc1LTEuMzU3LDBMMTMsMTkuNjQzICAgIGwtMS4zNTctMS4zNTdjLTAuMzc1LTAuMzc1LTAuOTgyLTAuMzc1LTEuMzU3LDBjLTAuMzc1LDAuMzc0LTAuMzc1LDAuOTgyLDAsMS4zNTdMMTEuNjQzLDIxbC0xLjM1NywxLjM1NyAgICBjLTAuMzc1LDAuMzc1LTAuMzc1LDAuOTgyLDAsMS4zNTdzMC45ODIsMC4zNzUsMS4zNTcsMEwxMywyMi4zNTdsMS4zNTcsMS4zNTdjMC4zNzUsMC4zNzUsMC45ODIsMC4zNzUsMS4zNTcsMCAgICBzMC4zNzUtMC45ODIsMC0xLjM1N0wxNC4zNTcsMjFsMS4zNTctMS4zNTdDMTYuMDksMTkuMjY4LDE2LjA5LDE4LjY1OSwxNS43MTUsMTguMjg1eiBNNDEsNmgtNVY0YzAtMS4xMDQtMC44OTYtMi0yLTJoLTIgICAgYy0xLjEwNCwwLTIsMC44OTYtMiwydjJIMTZWNGMwLTEuMTA0LTAuODk2LTItMi0yaC0yYy0xLjEwNCwwLTIsMC44OTYtMiwydjJINUM0LjQ0Nyw2LDQsNi40NDcsNCw3djM4YzAsMC41NTMsMC40NDcsMSwxLDFoMzYgICAgYzAuNTUzLDAsMS0wLjQ0NywxLTFWN0M0Miw2LjQ0Nyw0MS41NTMsNiw0MSw2eiBNMzIsNWMwLTAuNTUzLDAuNDQ3LTEsMS0xczEsMC40NDcsMSwxdjRjMCwwLjU1My0wLjQ0NywxLTEsMXMtMS0wLjQ0Ny0xLTFWNXogICAgIE0xMiw1YzAtMC41NTMsMC40NDctMSwxLTFzMSwwLjQ0NywxLDF2NGMwLDAuNTUzLTAuNDQ3LDEtMSwxcy0xLTAuNDQ3LTEtMVY1eiBNNDAsNDRINlY4aDR2MmMwLDEuMTA0LDAuODk2LDIsMiwyaDIgICAgYzEuMTA0LDAsMi0wLjg5NiwyLTJWOGgxNHYyYzAsMS4xMDQsMC44OTYsMiwyLDJoMmMxLjEwNCwwLDItMC44OTYsMi0yVjhoNFY0NHogTTM0LDIwSDIwYy0wLjU1MywwLTEsMC40NDctMSwxczAuNDQ3LDEsMSwxaDE0ICAgIGMwLjU1MywwLDEtMC40NDcsMS0xUzM0LjU1MywyMCwzNCwyMHogTTMwLDMwSDIwYy0wLjU1MywwLTEsMC40NDctMSwxczAuNDQ3LDEsMSwxaDEwYzAuNTUzLDAsMS0wLjQ0NywxLTFTMzAuNTUzLDMwLDMwLDMweiIvPiYjeGE7CTwvZz4mI3hhOzwvZz4mI3hhOzwvc3ZnPg==" parent="1" vertex="1">
          <mxGeometry x="103.5" y="260" width="48" height="48" as="geometry" />
        </mxCell>
        <mxCell id="kkBU5Qbpwik_OOVD1f4N-41" style="edgeStyle=orthogonalEdgeStyle;rounded=0;orthogonalLoop=1;jettySize=auto;html=1;entryX=0;entryY=0.75;entryDx=0;entryDy=0;exitX=0.5;exitY=1;exitDx=0;exitDy=0;" parent="1" source="kkBU5Qbpwik_OOVD1f4N-28" target="kkBU5Qbpwik_OOVD1f4N-17" edge="1">
          <mxGeometry relative="1" as="geometry" />
        </mxCell>
        <mxCell id="kkBU5Qbpwik_OOVD1f4N-28" value="SFO WIP (External)" style="shape=image;verticalLabelPosition=bottom;verticalAlign=top;aspect=fixed;image=data:image/svg+xml,PHN2ZyB4bWxucz0iaHR0cDovL3d3dy53My5vcmcvMjAwMC9zdmciIHhtbG5zOnhsaW5rPSJodHRwOi8vd3d3LnczLm9yZy8xOTk5L3hsaW5rIiB2ZXJzaW9uPSIxLjEiIGlkPSJMYXllcl8xIiB4PSIwcHgiIHk9IjBweCIgd2lkdGg9IjQ4cHgiIGhlaWdodD0iNDhweCIgdmlld0JveD0iMCAwIDQ4IDQ4IiBlbmFibGUtYmFja2dyb3VuZD0ibmV3IDAgMCA0OCA0OCIgeG1sOnNwYWNlPSJwcmVzZXJ2ZSI+JiN4YTs8ZyBpZD0iY29sb3JfNTFfIj4mI3hhOwk8Zz4mI3hhOwkJPHBhdGggZmlsbD0iIzg5OENDNSIgZD0iTTQzLDZoLTV2NGMwLDEuMTA0LTAuODk2LDItMiwyaC0yYy0xLjEwNCwwLTItMC44OTYtMi0yVjZIMTh2NGMwLDEuMTA0LTAuODk2LDItMiwyaC0yICAgIGMtMS4xMDQsMC0yLTAuODk2LTItMlY2SDlDOC40NDcsNiw4LDYuNDQ3LDgsN3YzOGMwLDAuNTUzLDAuNDQ3LDEsMSwxaDM0YzAuNTUzLDAsMS0wLjQ0NywxLTFWN0M0NCw2LjQ0Nyw0My41NTMsNiw0Myw2eiIvPiYjeGE7CTwvZz4mI3hhOzwvZz4mI3hhOzxnIGlkPSJvdXRsaW5lXzQ5XyI+JiN4YTsJPGc+JiN4YTsJCTxwYXRoIGZpbGw9IiMzODRENjgiIGQ9Ik0xNS43MTUsMjguMjg1Yy0wLjM3NS0wLjM3NS0wLjk4Mi0wLjM3NS0xLjM1NywwTDEzLDI5LjY0M2wtMS4zNTctMS4zNTcgICAgYy0wLjM3NS0wLjM3NS0wLjk4Mi0wLjM3NS0xLjM1NywwYy0wLjM3NSwwLjM3NC0wLjM3NSwwLjk4MiwwLDEuMzU3TDExLjY0MywzMWwtMS4zNTcsMS4zNTdjLTAuMzc1LDAuMzc1LTAuMzc1LDAuOTgzLDAsMS4zNTcgICAgYzAuMzc1LDAuMzc1LDAuOTgyLDAuMzc1LDEuMzU3LDBMMTMsMzIuMzU3bDEuMzU3LDEuMzU3YzAuMzc1LDAuMzc1LDAuOTgyLDAuMzc1LDEuMzU3LDBjMC4zNzUtMC4zNzQsMC4zNzUtMC45ODIsMC0xLjM1NyAgICBMMTQuMzU3LDMxbDEuMzU3LTEuMzU3QzE2LjA5LDI5LjI2OCwxNi4wOSwyOC42NTksMTUuNzE1LDI4LjI4NXogTTE1LjcxNSwxOC4yODVjLTAuMzc1LTAuMzc1LTAuOTgyLTAuMzc1LTEuMzU3LDBMMTMsMTkuNjQzICAgIGwtMS4zNTctMS4zNTdjLTAuMzc1LTAuMzc1LTAuOTgyLTAuMzc1LTEuMzU3LDBjLTAuMzc1LDAuMzc0LTAuMzc1LDAuOTgyLDAsMS4zNTdMMTEuNjQzLDIxbC0xLjM1NywxLjM1NyAgICBjLTAuMzc1LDAuMzc1LTAuMzc1LDAuOTgyLDAsMS4zNTdzMC45ODIsMC4zNzUsMS4zNTcsMEwxMywyMi4zNTdsMS4zNTcsMS4zNTdjMC4zNzUsMC4zNzUsMC45ODIsMC4zNzUsMS4zNTcsMCAgICBzMC4zNzUtMC45ODIsMC0xLjM1N0wxNC4zNTcsMjFsMS4zNTctMS4zNTdDMTYuMDksMTkuMjY4LDE2LjA5LDE4LjY1OSwxNS43MTUsMTguMjg1eiBNNDEsNmgtNVY0YzAtMS4xMDQtMC44OTYtMi0yLTJoLTIgICAgYy0xLjEwNCwwLTIsMC44OTYtMiwydjJIMTZWNGMwLTEuMTA0LTAuODk2LTItMi0yaC0yYy0xLjEwNCwwLTIsMC44OTYtMiwydjJINUM0LjQ0Nyw2LDQsNi40NDcsNCw3djM4YzAsMC41NTMsMC40NDcsMSwxLDFoMzYgICAgYzAuNTUzLDAsMS0wLjQ0NywxLTFWN0M0Miw2LjQ0Nyw0MS41NTMsNiw0MSw2eiBNMzIsNWMwLTAuNTUzLDAuNDQ3LTEsMS0xczEsMC40NDcsMSwxdjRjMCwwLjU1My0wLjQ0NywxLTEsMXMtMS0wLjQ0Ny0xLTFWNXogICAgIE0xMiw1YzAtMC41NTMsMC40NDctMSwxLTFzMSwwLjQ0NywxLDF2NGMwLDAuNTUzLTAuNDQ3LDEtMSwxcy0xLTAuNDQ3LTEtMVY1eiBNNDAsNDRINlY4aDR2MmMwLDEuMTA0LDAuODk2LDIsMiwyaDIgICAgYzEuMTA0LDAsMi0wLjg5NiwyLTJWOGgxNHYyYzAsMS4xMDQsMC44OTYsMiwyLDJoMmMxLjEwNCwwLDItMC44OTYsMi0yVjhoNFY0NHogTTM0LDIwSDIwYy0wLjU1MywwLTEsMC40NDctMSwxczAuNDQ3LDEsMSwxaDE0ICAgIGMwLjU1MywwLDEtMC40NDcsMS0xUzM0LjU1MywyMCwzNCwyMHogTTMwLDMwSDIwYy0wLjU1MywwLTEsMC40NDctMSwxczAuNDQ3LDEsMSwxaDEwYzAuNTUzLDAsMS0wLjQ0NywxLTFTMzAuNTUzLDMwLDMwLDMweiIvPiYjeGE7CTwvZz4mI3hhOzwvZz4mI3hhOzwvc3ZnPg==" parent="1" vertex="1">
          <mxGeometry x="103.5" y="460" width="48" height="48" as="geometry" />
        </mxCell>
        <mxCell id="kkBU5Qbpwik_OOVD1f4N-34" style="edgeStyle=orthogonalEdgeStyle;rounded=0;orthogonalLoop=1;jettySize=auto;html=1;entryX=0.5;entryY=1;entryDx=0;entryDy=0;" parent="1" source="kkBU5Qbpwik_OOVD1f4N-31" target="kkBU5Qbpwik_OOVD1f4N-33" edge="1">
          <mxGeometry relative="1" as="geometry" />
        </mxCell>
        <mxCell id="kkBU5Qbpwik_OOVD1f4N-31" value="Warehouse FG" style="shape=image;verticalLabelPosition=bottom;verticalAlign=top;aspect=fixed;image=data:image/svg+xml,PHN2ZyB4bWxucz0iaHR0cDovL3d3dy53My5vcmcvMjAwMC9zdmciIHhtbG5zOnhsaW5rPSJodHRwOi8vd3d3LnczLm9yZy8xOTk5L3hsaW5rIiB2ZXJzaW9uPSIxLjEiIGlkPSJMYXllcl8xIiB4PSIwcHgiIHk9IjBweCIgd2lkdGg9IjQ4cHgiIGhlaWdodD0iNDhweCIgdmlld0JveD0iMCAwIDQ4IDQ4IiBlbmFibGUtYmFja2dyb3VuZD0ibmV3IDAgMCA0OCA0OCIgeG1sOnNwYWNlPSJwcmVzZXJ2ZSI+JiN4YTs8ZyBpZD0iY29sb3JfMjZfIj4mI3hhOwk8Zz4mI3hhOwkJPHBhdGggZmlsbD0iI0ZGREE4RSIgZD0iTTE1LDIxLjIwNUMxNC45ODIsMjEuMzcxLDE0Ljk5OSwyMS40MjYsMTUsMjEuMjA1TDE1LDIxLjIwNXogTTE1LDIxLjIwNSAgICBjMC4wMDEtMC4wMDIsMC4wMDEtMC4wMDQsMC4wMDEtMC4wMDZ2LTAuMDJDMTUuMDAxLDIxLjE5MSwxNSwyMS4xOTMsMTUsMjEuMjA1eiBNNDAuOTgxLDIxLjA0OCAgICBjLTAuMDI0LTAuMjI5LTAuMTI5LTAuNDI5LTAuMjc4LTAuNTgzbDAuMDA1LTAuMDA1bC0wLjAyOS0wLjAyOWMtMC4wMDItMC4wMDEtMC4wMDMtMC4wMDMtMC4wMDQtMC4wMDRMMjguNzA4LDguNzg0ICAgIGMwLDAtMC4wODYtMC4xMTYtMC4zNDgtMC4yMTVjLTAuMjA5LTAuMDkyLTAuNDQ5LTAuMDk1LTAuNjcyLTAuMDA5Yy0wLjI5OSwwLjA5OC0wLjM5NSwwLjIyNC0wLjM5NSwwLjIyNGwtMTEuOTc1LDExLjY1ICAgIGMtMC4yMjIsMC4yMDUtMC4yOTYsMC41NTktMC4zMTgsMC43NjR2MjIuMzY4YzAsMC41MTUsMC40MTYsMC45MzMsMC45MjksMC45MzNoMjQuMTQzYzAuNTEzLDAsMC45MjktMC40MTgsMC45MjktMC45MzMgICAgQzQxLjAwMSw0My41NjYsNDAuOTgxLDIxLjMzNSw0MC45ODEsMjEuMDQ4eiIvPiYjeGE7CTwvZz4mI3hhOzwvZz4mI3hhOzxnIGlkPSJvdXRsaW5lXzI1XyI+JiN4YTsJPGc+JiN4YTsJCTxwYXRoIGZpbGw9IiMzODRENjgiIGQ9Ik0xNC4wMDEsMjYuNDk5aDEzLjY0OGwtMy4zNzMsMy4zNjJjLTAuMzc1LDAuMzczLTAuMzc1LDAuOTc4LDAsMS4zNTFjMC4zNzQsMC4zNzMsMC45ODIsMC4zNzMsMS4zNTcsMCAgICBsNS4wNzItNS4wNTNjMC4zNzUtMC4zNzMsMC4zNzUtMC45NzgsMC0xLjM1MWwtNS4wNzItNS4wNTNjLTAuMzc1LTAuMzczLTAuOTgzLTAuMzczLTEuMzU3LDBjLTAuMzc1LDAuMzczLTAuMzc1LDAuOTc4LDAsMS4zNTEgICAgbDMuNDAzLDMuMzkzSDE0LjAwMWMtMC41NTMsMC0xLDAuNDQ3LTEsMVMxMy40NDgsMjYuNDk5LDE0LjAwMSwyNi40OTl6IE0xMS4wMDEsMzguNDk5Yy0xLjY1NiwwLTMsMS4zNDMtMywzczEuMzQ0LDMsMywzICAgIHMzLTEuMzQzLDMtM1MxMi42NTcsMzguNDk5LDExLjAwMSwzOC40OTl6IE0xMS4wMDEsNDIuNDk5Yy0wLjU1MywwLTEtMC40NDctMS0xczAuNDQ3LTEsMS0xczEsMC40NDcsMSwxICAgIFMxMS41NTQsNDIuNDk5LDExLjAwMSw0Mi40OTl6IE00NS43MDQsMjIuNzkzTDI2LjY2LDMuNzk1Yy0wLjM5Mi0wLjM5Mi0xLjAyOC0wLjM5Mi0xLjQyMSwwbC05Ljk0MSw5LjkxNiAgICBjLTAuMzkzLDAuMzkxLTAuMzkzLDEuMDI1LDAsMS40MTZjMC4zOTMsMC4zOTIsMS4wMjcsMC4zOTIsMS40MiwwTDI1Ljk1LDUuOTJsMTguMzM0LDE4LjI5YzAuMzkzLDAuMzkxLDEuMDI3LDAuMzkxLDEuNDIsMCAgICBDNDYuMDk3LDIzLjgxOCw0Ni4wOTcsMjMuMTg1LDQ1LjcwNCwyMi43OTN6IE00MC4wMDEsMjMuNDk5Yy0wLjU1MywwLTEsMC40NDctMSwxdjE4aC02di03YzAtMC41NTMtMC40NDctMS0xLTFoLTMgICAgYy0wLjU1MywwLTEsMC40NDctMSwxczAuNDQ3LDEsMSwxaDJ2N2MwLDAuNTUzLDAuNDQ3LDEsMSwxaDhjMC41NTMsMCwxLTAuNDQ3LDEtMXYtMTlDNDEuMDAxLDIzLjk0Niw0MC41NTQsMjMuNDk5LDQwLjAwMSwyMy40OTkgICAgeiBNMjIuMDAxLDM4LjQ5OWMtMS42NTYsMC0zLDEuMzQzLTMsM3MxLjM0NCwzLDMsM3MzLTEuMzQzLDMtM1MyMy42NTcsMzguNDk5LDIyLjAwMSwzOC40OTl6IE0yMi4wMDEsNDIuNDk5ICAgIGMtMC41NTMsMC0xLTAuNDQ3LTEtMXMwLjQ0Ny0xLDEtMXMxLDAuNDQ3LDEsMVMyMi41NTQsNDIuNDk5LDIyLjAwMSw0Mi40OTl6IE0yNS4wMDEsMzQuNDk5SDkuODU4TDcuOTg5LDIyLjM0N0w3Ljk3MSwyMi4zNSAgICBjLTAuMDc1LTAuNDc5LTAuNDctMC44NTEtMC45Ny0wLjg1MWgtNGMtMC41NTMsMC0xLDAuNDQ3LTEsMXMwLjQ0NywxLDEsMWgzLjE0M2wxLjg2OSwxMi4xNTJsMC4wMTktMC4wMDMgICAgYzAuMDc1LDAuNDc5LDAuNDcsMC44NTEsMC45NywwLjg1MWgxNmMwLjU1MywwLDEtMC40NDcsMS0xUzI1LjU1NCwzNC40OTksMjUuMDAxLDM0LjQ5OXoiLz4mI3hhOwk8L2c+JiN4YTs8L2c+JiN4YTs8L3N2Zz4=" parent="1" vertex="1">
          <mxGeometry x="670" y="580" width="48" height="48" as="geometry" />
        </mxCell>
        <mxCell id="kkBU5Qbpwik_OOVD1f4N-36" style="edgeStyle=orthogonalEdgeStyle;rounded=0;orthogonalLoop=1;jettySize=auto;html=1;exitX=0.5;exitY=0;exitDx=0;exitDy=0;entryX=0.5;entryY=1;entryDx=0;entryDy=0;" parent="1" source="kkBU5Qbpwik_OOVD1f4N-33" target="kkBU5Qbpwik_OOVD1f4N-35" edge="1">
          <mxGeometry relative="1" as="geometry" />
        </mxCell>
        <mxCell id="kkBU5Qbpwik_OOVD1f4N-33" value="Picking Slips" style="shape=image;verticalLabelPosition=bottom;verticalAlign=top;aspect=fixed;image=data:image/svg+xml,PHN2ZyB4bWxucz0iaHR0cDovL3d3dy53My5vcmcvMjAwMC9zdmciIHhtbG5zOnhsaW5rPSJodHRwOi8vd3d3LnczLm9yZy8xOTk5L3hsaW5rIiB2ZXJzaW9uPSIxLjEiIGlkPSJMYXllcl8xIiB4PSIwcHgiIHk9IjBweCIgd2lkdGg9IjQ4cHgiIGhlaWdodD0iNDhweCIgdmlld0JveD0iMCAwIDQ4IDQ4IiBlbmFibGUtYmFja2dyb3VuZD0ibmV3IDAgMCA0OCA0OCIgeG1sOnNwYWNlPSJwcmVzZXJ2ZSI+JiN4YTs8ZyBpZD0iY29sb3JfNTFfIj4mI3hhOwk8Zz4mI3hhOwkJPHBhdGggZmlsbD0iIzg5OENDNSIgZD0iTTQzLDZoLTV2NGMwLDEuMTA0LTAuODk2LDItMiwyaC0yYy0xLjEwNCwwLTItMC44OTYtMi0yVjZIMTh2NGMwLDEuMTA0LTAuODk2LDItMiwyaC0yICAgIGMtMS4xMDQsMC0yLTAuODk2LTItMlY2SDlDOC40NDcsNiw4LDYuNDQ3LDgsN3YzOGMwLDAuNTUzLDAuNDQ3LDEsMSwxaDM0YzAuNTUzLDAsMS0wLjQ0NywxLTFWN0M0NCw2LjQ0Nyw0My41NTMsNiw0Myw2eiIvPiYjeGE7CTwvZz4mI3hhOzwvZz4mI3hhOzxnIGlkPSJvdXRsaW5lXzQ5XyI+JiN4YTsJPGc+JiN4YTsJCTxwYXRoIGZpbGw9IiMzODRENjgiIGQ9Ik0xNS43MTUsMjguMjg1Yy0wLjM3NS0wLjM3NS0wLjk4Mi0wLjM3NS0xLjM1NywwTDEzLDI5LjY0M2wtMS4zNTctMS4zNTcgICAgYy0wLjM3NS0wLjM3NS0wLjk4Mi0wLjM3NS0xLjM1NywwYy0wLjM3NSwwLjM3NC0wLjM3NSwwLjk4MiwwLDEuMzU3TDExLjY0MywzMWwtMS4zNTcsMS4zNTdjLTAuMzc1LDAuMzc1LTAuMzc1LDAuOTgzLDAsMS4zNTcgICAgYzAuMzc1LDAuMzc1LDAuOTgyLDAuMzc1LDEuMzU3LDBMMTMsMzIuMzU3bDEuMzU3LDEuMzU3YzAuMzc1LDAuMzc1LDAuOTgyLDAuMzc1LDEuMzU3LDBjMC4zNzUtMC4zNzQsMC4zNzUtMC45ODIsMC0xLjM1NyAgICBMMTQuMzU3LDMxbDEuMzU3LTEuMzU3QzE2LjA5LDI5LjI2OCwxNi4wOSwyOC42NTksMTUuNzE1LDI4LjI4NXogTTE1LjcxNSwxOC4yODVjLTAuMzc1LTAuMzc1LTAuOTgyLTAuMzc1LTEuMzU3LDBMMTMsMTkuNjQzICAgIGwtMS4zNTctMS4zNTdjLTAuMzc1LTAuMzc1LTAuOTgyLTAuMzc1LTEuMzU3LDBjLTAuMzc1LDAuMzc0LTAuMzc1LDAuOTgyLDAsMS4zNTdMMTEuNjQzLDIxbC0xLjM1NywxLjM1NyAgICBjLTAuMzc1LDAuMzc1LTAuMzc1LDAuOTgyLDAsMS4zNTdzMC45ODIsMC4zNzUsMS4zNTcsMEwxMywyMi4zNTdsMS4zNTcsMS4zNTdjMC4zNzUsMC4zNzUsMC45ODIsMC4zNzUsMS4zNTcsMCAgICBzMC4zNzUtMC45ODIsMC0xLjM1N0wxNC4zNTcsMjFsMS4zNTctMS4zNTdDMTYuMDksMTkuMjY4LDE2LjA5LDE4LjY1OSwxNS43MTUsMTguMjg1eiBNNDEsNmgtNVY0YzAtMS4xMDQtMC44OTYtMi0yLTJoLTIgICAgYy0xLjEwNCwwLTIsMC44OTYtMiwydjJIMTZWNGMwLTEuMTA0LTAuODk2LTItMi0yaC0yYy0xLjEwNCwwLTIsMC44OTYtMiwydjJINUM0LjQ0Nyw2LDQsNi40NDcsNCw3djM4YzAsMC41NTMsMC40NDcsMSwxLDFoMzYgICAgYzAuNTUzLDAsMS0wLjQ0NywxLTFWN0M0Miw2LjQ0Nyw0MS41NTMsNiw0MSw2eiBNMzIsNWMwLTAuNTUzLDAuNDQ3LTEsMS0xczEsMC40NDcsMSwxdjRjMCwwLjU1My0wLjQ0NywxLTEsMXMtMS0wLjQ0Ny0xLTFWNXogICAgIE0xMiw1YzAtMC41NTMsMC40NDctMSwxLTFzMSwwLjQ0NywxLDF2NGMwLDAuNTUzLTAuNDQ3LDEtMSwxcy0xLTAuNDQ3LTEtMVY1eiBNNDAsNDRINlY4aDR2MmMwLDEuMTA0LDAuODk2LDIsMiwyaDIgICAgYzEuMTA0LDAsMi0wLjg5NiwyLTJWOGgxNHYyYzAsMS4xMDQsMC44OTYsMiwyLDJoMmMxLjEwNCwwLDItMC44OTYsMi0yVjhoNFY0NHogTTM0LDIwSDIwYy0wLjU1MywwLTEsMC40NDctMSwxczAuNDQ3LDEsMSwxaDE0ICAgIGMwLjU1MywwLDEtMC40NDcsMS0xUzM0LjU1MywyMCwzNCwyMHogTTMwLDMwSDIwYy0wLjU1MywwLTEsMC40NDctMSwxczAuNDQ3LDEsMSwxaDEwYzAuNTUzLDAsMS0wLjQ0NywxLTFTMzAuNTUzLDMwLDMwLDMweiIvPiYjeGE7CTwvZz4mI3hhOzwvZz4mI3hhOzwvc3ZnPg==" parent="1" vertex="1">
          <mxGeometry x="670" y="460" width="48" height="48" as="geometry" />
        </mxCell>
        <mxCell id="kkBU5Qbpwik_OOVD1f4N-39" style="edgeStyle=orthogonalEdgeStyle;rounded=0;orthogonalLoop=1;jettySize=auto;html=1;entryX=0;entryY=0.5;entryDx=0;entryDy=0;" parent="1" source="kkBU5Qbpwik_OOVD1f4N-35" target="kkBU5Qbpwik_OOVD1f4N-38" edge="1">
          <mxGeometry relative="1" as="geometry" />
        </mxCell>
        <mxCell id="kkBU5Qbpwik_OOVD1f4N-35" value="Outgoing Inspections" style="shape=image;verticalLabelPosition=bottom;verticalAlign=top;aspect=fixed;image=data:image/svg+xml,PHN2ZyB4bWxucz0iaHR0cDovL3d3dy53My5vcmcvMjAwMC9zdmciIHhtbG5zOnhsaW5rPSJodHRwOi8vd3d3LnczLm9yZy8xOTk5L3hsaW5rIiB2ZXJzaW9uPSIxLjEiIGlkPSJMYXllcl8xIiB4PSIwcHgiIHk9IjBweCIgd2lkdGg9IjQ4cHgiIGhlaWdodD0iNDhweCIgdmlld0JveD0iMCAwIDQ4IDQ4IiBlbmFibGUtYmFja2dyb3VuZD0ibmV3IDAgMCA0OCA0OCIgeG1sOnNwYWNlPSJwcmVzZXJ2ZSI+JiN4YTs8ZyBpZD0iY29sb3JfNTFfIj4mI3hhOwk8Zz4mI3hhOwkJPHBhdGggZmlsbD0iIzg5OENDNSIgZD0iTTQzLDZoLTV2NGMwLDEuMTA0LTAuODk2LDItMiwyaC0yYy0xLjEwNCwwLTItMC44OTYtMi0yVjZIMTh2NGMwLDEuMTA0LTAuODk2LDItMiwyaC0yICAgIGMtMS4xMDQsMC0yLTAuODk2LTItMlY2SDlDOC40NDcsNiw4LDYuNDQ3LDgsN3YzOGMwLDAuNTUzLDAuNDQ3LDEsMSwxaDM0YzAuNTUzLDAsMS0wLjQ0NywxLTFWN0M0NCw2LjQ0Nyw0My41NTMsNiw0Myw2eiIvPiYjeGE7CTwvZz4mI3hhOzwvZz4mI3hhOzxnIGlkPSJvdXRsaW5lXzQ5XyI+JiN4YTsJPGc+JiN4YTsJCTxwYXRoIGZpbGw9IiMzODRENjgiIGQ9Ik0xNS43MTUsMjguMjg1Yy0wLjM3NS0wLjM3NS0wLjk4Mi0wLjM3NS0xLjM1NywwTDEzLDI5LjY0M2wtMS4zNTctMS4zNTcgICAgYy0wLjM3NS0wLjM3NS0wLjk4Mi0wLjM3NS0xLjM1NywwYy0wLjM3NSwwLjM3NC0wLjM3NSwwLjk4MiwwLDEuMzU3TDExLjY0MywzMWwtMS4zNTcsMS4zNTdjLTAuMzc1LDAuMzc1LTAuMzc1LDAuOTgzLDAsMS4zNTcgICAgYzAuMzc1LDAuMzc1LDAuOTgyLDAuMzc1LDEuMzU3LDBMMTMsMzIuMzU3bDEuMzU3LDEuMzU3YzAuMzc1LDAuMzc1LDAuOTgyLDAuMzc1LDEuMzU3LDBjMC4zNzUtMC4zNzQsMC4zNzUtMC45ODIsMC0xLjM1NyAgICBMMTQuMzU3LDMxbDEuMzU3LTEuMzU3QzE2LjA5LDI5LjI2OCwxNi4wOSwyOC42NTksMTUuNzE1LDI4LjI4NXogTTE1LjcxNSwxOC4yODVjLTAuMzc1LTAuMzc1LTAuOTgyLTAuMzc1LTEuMzU3LDBMMTMsMTkuNjQzICAgIGwtMS4zNTctMS4zNTdjLTAuMzc1LTAuMzc1LTAuOTgyLTAuMzc1LTEuMzU3LDBjLTAuMzc1LDAuMzc0LTAuMzc1LDAuOTgyLDAsMS4zNTdMMTEuNjQzLDIxbC0xLjM1NywxLjM1NyAgICBjLTAuMzc1LDAuMzc1LTAuMzc1LDAuOTgyLDAsMS4zNTdzMC45ODIsMC4zNzUsMS4zNTcsMEwxMywyMi4zNTdsMS4zNTcsMS4zNTdjMC4zNzUsMC4zNzUsMC45ODIsMC4zNzUsMS4zNTcsMCAgICBzMC4zNzUtMC45ODIsMC0xLjM1N0wxNC4zNTcsMjFsMS4zNTctMS4zNTdDMTYuMDksMTkuMjY4LDE2LjA5LDE4LjY1OSwxNS43MTUsMTguMjg1eiBNNDEsNmgtNVY0YzAtMS4xMDQtMC44OTYtMi0yLTJoLTIgICAgYy0xLjEwNCwwLTIsMC44OTYtMiwydjJIMTZWNGMwLTEuMTA0LTAuODk2LTItMi0yaC0yYy0xLjEwNCwwLTIsMC44OTYtMiwydjJINUM0LjQ0Nyw2LDQsNi40NDcsNCw3djM4YzAsMC41NTMsMC40NDcsMSwxLDFoMzYgICAgYzAuNTUzLDAsMS0wLjQ0NywxLTFWN0M0Miw2LjQ0Nyw0MS41NTMsNiw0MSw2eiBNMzIsNWMwLTAuNTUzLDAuNDQ3LTEsMS0xczEsMC40NDcsMSwxdjRjMCwwLjU1My0wLjQ0NywxLTEsMXMtMS0wLjQ0Ny0xLTFWNXogICAgIE0xMiw1YzAtMC41NTMsMC40NDctMSwxLTFzMSwwLjQ0NywxLDF2NGMwLDAuNTUzLTAuNDQ3LDEtMSwxcy0xLTAuNDQ3LTEtMVY1eiBNNDAsNDRINlY4aDR2MmMwLDEuMTA0LDAuODk2LDIsMiwyaDIgICAgYzEuMTA0LDAsMi0wLjg5NiwyLTJWOGgxNHYyYzAsMS4xMDQsMC44OTYsMiwyLDJoMmMxLjEwNCwwLDItMC44OTYsMi0yVjhoNFY0NHogTTM0LDIwSDIwYy0wLjU1MywwLTEsMC40NDctMSwxczAuNDQ3LDEsMSwxaDE0ICAgIGMwLjU1MywwLDEtMC40NDcsMS0xUzM0LjU1MywyMCwzNCwyMHogTTMwLDMwSDIwYy0wLjU1MywwLTEsMC40NDctMSwxczAuNDQ3LDEsMSwxaDEwYzAuNTUzLDAsMS0wLjQ0NywxLTFTMzAuNTUzLDMwLDMwLDMweiIvPiYjeGE7CTwvZz4mI3hhOzwvZz4mI3hhOzwvc3ZnPg==" parent="1" vertex="1">
          <mxGeometry x="670" y="340" width="48" height="48" as="geometry" />
        </mxCell>
        <mxCell id="kkBU5Qbpwik_OOVD1f4N-37" value="Delivery" style="shape=image;verticalLabelPosition=bottom;verticalAlign=top;aspect=fixed;image=data:image/svg+xml,PHN2ZyB4bWxucz0iaHR0cDovL3d3dy53My5vcmcvMjAwMC9zdmciIHhtbG5zOnhsaW5rPSJodHRwOi8vd3d3LnczLm9yZy8xOTk5L3hsaW5rIiB2ZXJzaW9uPSIxLjEiIGlkPSJMYXllcl8xIiB4PSIwcHgiIHk9IjBweCIgd2lkdGg9IjQ4cHgiIGhlaWdodD0iNDhweCIgdmlld0JveD0iMCAwIDQ4IDQ4IiBlbmFibGUtYmFja2dyb3VuZD0ibmV3IDAgMCA0OCA0OCIgeG1sOnNwYWNlPSJwcmVzZXJ2ZSI+JiN4YTs8ZyBpZD0iY29sb3JfMzNfIj4mI3hhOwk8Zz4mI3hhOwkJPHBhdGggZmlsbD0iI0YxNjM2MiIgZD0iTTQ1LDIzaC01bC00LTEyYzAtMC41NTMtMC40NDctMS0xLTFoLTFoLTVIN2MtMC41NTMsMC0xLDAuNDQ3LTEsMXYyNGMwLDAuNTUzLDAuNDQ3LDEsMSwxaDI3ICAgIGMwLjE4NiwwLDAuMzUxLTAuMDY0LDAuNS0wLjE1M0MzNC42NDksMzUuOTM2LDM0LjgxNCwzNiwzNSwzNmg4YzAuNTUzLDAsMy0yLjQ0NywzLTN2LTlDNDYsMjMuNDQ3LDQ1LjU1MywyMyw0NSwyM3oiLz4mI3hhOwk8L2c+JiN4YTs8L2c+JiN4YTs8ZyBpZD0ib3V0bGluZV8zM18iPiYjeGE7CTxnPiYjeGE7CQk8cGF0aCBmaWxsPSIjMzg0RDY4IiBkPSJNMjEuMjgxLDMxLjM2MmMtMC4zNzUsMC4zNzMtMC4zNzUsMC45NzgsMCwxLjM1MXMwLjk4MiwwLjM3MywxLjM1NywwbDQuMDczLTQuMDUzICAgIGMwLjM3NC0wLjM3MywwLjM3NC0wLjk3OCwwLTEuMzUxbC00LjA3My00LjA1M2MtMC4zNzUtMC4zNzMtMC45ODItMC4zNzMtMS4zNTcsMHMtMC4zNzUsMC45NzgsMCwxLjM1MUwyMy42ODYsMjdIMTYgICAgYy0xLjY1NiwwLTMtMS4zNDMtMy0zdi00YzAtMC41NTMtMC40NDctMS0xLTFzLTEsMC40NDctMSwxdjRjMCwyLjc2MiwyLjIzOCw1LDUsNWg3LjY1NUwyMS4yODEsMzEuMzYyeiBNNDEsMjYgICAgYzAuNTUzLDAsMS0wLjQ0NywxLTFzLTAuNDQ3LTEtMS0xaC0yYy0wLjU1MywwLTEsMC40NDctMSwxczAuNDQ3LDEsMSwxSDQxeiBNMTMsMzVjLTEuNjU2LDAtMywxLjM0My0zLDNzMS4zNDQsMywzLDNzMy0xLjM0MywzLTMgICAgUzE0LjY1NiwzNSwxMywzNXogTTEzLDM5Yy0wLjU1MywwLTEtMC40NDctMS0xczAuNDQ3LTEsMS0xczEsMC40NDcsMSwxUzEzLjU1MywzOSwxMywzOXogTTI4LDM1SDE4Yy0wLjU1MywwLTEsMC40NDctMSwxICAgIHMwLjQ0NywxLDEsMWgxMGMwLjU1MywwLDEtMC40NDcsMS0xUzI4LjU1MywzNSwyOCwzNXogTTQyLDIwaC0yYy0xLjEwNCwwLTItMC44OTYtMi0ybC0yLTdjMC0yLjIwOS0xLjc5MS00LTQtNEgzICAgIEMyLjQ0Nyw3LDIsNy40NDcsMiw4djI4YzAsMC41NTMsMC40NDcsMSwxLDFoNWMwLjU1MywwLDEtMC40NDcsMS0xcy0wLjQ0Ny0xLTEtMUg0VjloMjhjMS4xMDQsMCwyLDAuODk2LDIsMmwyLDcgICAgYzAsMi4yMDksMS43OTEsNCw0LDRoMmMxLjEwNCwwLDIsMC44OTYsMiwydjljMCwxLjEwNC0wLjg5NiwyLTIsMmgtNGMtMC41NTMsMC0xLDAuNDQ3LTEsMXMwLjQ0NywxLDEsMWg0YzIuMjA5LDAsNC0xLjc5MSw0LTR2LTkgICAgQzQ2LDIxLjc5MSw0NC4yMDksMjAsNDIsMjB6IE0zMiwyMmMxLjEwNCwwLDItMC44OTYsMi0ybC0yLTdjMC0xLjEwNC0wLjg5Ni0yLTItMmgtNGMtMS4xMDQsMC0yLDAuODk2LTIsMnY3YzAsMS4xMDQsMC44OTYsMiwyLDIgICAgSDMyeiBNMjYsMTNoNGwyLDdoLTZWMTN6IE0zMywzNWMtMS42NTYsMC0zLDEuMzQzLTMsM3MxLjM0NCwzLDMsM3MzLTEuMzQzLDMtM1MzNC42NTYsMzUsMzMsMzV6IE0zMywzOWMtMC41NTMsMC0xLTAuNDQ3LTEtMSAgICBzMC40NDctMSwxLTFzMSwwLjQ0NywxLDFTMzMuNTUzLDM5LDMzLDM5eiIvPiYjeGE7CTwvZz4mI3hhOzwvZz4mI3hhOzwvc3ZnPg==" parent="1" vertex="1">
          <mxGeometry x="840" y="460" width="48" height="48" as="geometry" />
        </mxCell>
        <mxCell id="kkBU5Qbpwik_OOVD1f4N-40" style="edgeStyle=orthogonalEdgeStyle;rounded=0;orthogonalLoop=1;jettySize=auto;html=1;" parent="1" source="kkBU5Qbpwik_OOVD1f4N-38" target="kkBU5Qbpwik_OOVD1f4N-37" edge="1">
          <mxGeometry relative="1" as="geometry" />
        </mxCell>
        <mxCell id="kkBU5Qbpwik_OOVD1f4N-38" value="Delivery Orders" style="shape=image;verticalLabelPosition=bottom;verticalAlign=top;aspect=fixed;image=data:image/svg+xml,PHN2ZyB4bWxucz0iaHR0cDovL3d3dy53My5vcmcvMjAwMC9zdmciIHhtbG5zOnhsaW5rPSJodHRwOi8vd3d3LnczLm9yZy8xOTk5L3hsaW5rIiB2ZXJzaW9uPSIxLjEiIGlkPSJMYXllcl8xIiB4PSIwcHgiIHk9IjBweCIgd2lkdGg9IjQ4cHgiIGhlaWdodD0iNDhweCIgdmlld0JveD0iMCAwIDQ4IDQ4IiBlbmFibGUtYmFja2dyb3VuZD0ibmV3IDAgMCA0OCA0OCIgeG1sOnNwYWNlPSJwcmVzZXJ2ZSI+JiN4YTs8ZyBpZD0iY29sb3JfNTFfIj4mI3hhOwk8Zz4mI3hhOwkJPHBhdGggZmlsbD0iIzg5OENDNSIgZD0iTTQzLDZoLTV2NGMwLDEuMTA0LTAuODk2LDItMiwyaC0yYy0xLjEwNCwwLTItMC44OTYtMi0yVjZIMTh2NGMwLDEuMTA0LTAuODk2LDItMiwyaC0yICAgIGMtMS4xMDQsMC0yLTAuODk2LTItMlY2SDlDOC40NDcsNiw4LDYuNDQ3LDgsN3YzOGMwLDAuNTUzLDAuNDQ3LDEsMSwxaDM0YzAuNTUzLDAsMS0wLjQ0NywxLTFWN0M0NCw2LjQ0Nyw0My41NTMsNiw0Myw2eiIvPiYjeGE7CTwvZz4mI3hhOzwvZz4mI3hhOzxnIGlkPSJvdXRsaW5lXzQ5XyI+JiN4YTsJPGc+JiN4YTsJCTxwYXRoIGZpbGw9IiMzODRENjgiIGQ9Ik0xNS43MTUsMjguMjg1Yy0wLjM3NS0wLjM3NS0wLjk4Mi0wLjM3NS0xLjM1NywwTDEzLDI5LjY0M2wtMS4zNTctMS4zNTcgICAgYy0wLjM3NS0wLjM3NS0wLjk4Mi0wLjM3NS0xLjM1NywwYy0wLjM3NSwwLjM3NC0wLjM3NSwwLjk4MiwwLDEuMzU3TDExLjY0MywzMWwtMS4zNTcsMS4zNTdjLTAuMzc1LDAuMzc1LTAuMzc1LDAuOTgzLDAsMS4zNTcgICAgYzAuMzc1LDAuMzc1LDAuOTgyLDAuMzc1LDEuMzU3LDBMMTMsMzIuMzU3bDEuMzU3LDEuMzU3YzAuMzc1LDAuMzc1LDAuOTgyLDAuMzc1LDEuMzU3LDBjMC4zNzUtMC4zNzQsMC4zNzUtMC45ODIsMC0xLjM1NyAgICBMMTQuMzU3LDMxbDEuMzU3LTEuMzU3QzE2LjA5LDI5LjI2OCwxNi4wOSwyOC42NTksMTUuNzE1LDI4LjI4NXogTTE1LjcxNSwxOC4yODVjLTAuMzc1LTAuMzc1LTAuOTgyLTAuMzc1LTEuMzU3LDBMMTMsMTkuNjQzICAgIGwtMS4zNTctMS4zNTdjLTAuMzc1LTAuMzc1LTAuOTgyLTAuMzc1LTEuMzU3LDBjLTAuMzc1LDAuMzc0LTAuMzc1LDAuOTgyLDAsMS4zNTdMMTEuNjQzLDIxbC0xLjM1NywxLjM1NyAgICBjLTAuMzc1LDAuMzc1LTAuMzc1LDAuOTgyLDAsMS4zNTdzMC45ODIsMC4zNzUsMS4zNTcsMEwxMywyMi4zNTdsMS4zNTcsMS4zNTdjMC4zNzUsMC4zNzUsMC45ODIsMC4zNzUsMS4zNTcsMCAgICBzMC4zNzUtMC45ODIsMC0xLjM1N0wxNC4zNTcsMjFsMS4zNTctMS4zNTdDMTYuMDksMTkuMjY4LDE2LjA5LDE4LjY1OSwxNS43MTUsMTguMjg1eiBNNDEsNmgtNVY0YzAtMS4xMDQtMC44OTYtMi0yLTJoLTIgICAgYy0xLjEwNCwwLTIsMC44OTYtMiwydjJIMTZWNGMwLTEuMTA0LTAuODk2LTItMi0yaC0yYy0xLjEwNCwwLTIsMC44OTYtMiwydjJINUM0LjQ0Nyw2LDQsNi40NDcsNCw3djM4YzAsMC41NTMsMC40NDcsMSwxLDFoMzYgICAgYzAuNTUzLDAsMS0wLjQ0NywxLTFWN0M0Miw2LjQ0Nyw0MS41NTMsNiw0MSw2eiBNMzIsNWMwLTAuNTUzLDAuNDQ3LTEsMS0xczEsMC40NDcsMSwxdjRjMCwwLjU1My0wLjQ0NywxLTEsMXMtMS0wLjQ0Ny0xLTFWNXogICAgIE0xMiw1YzAtMC41NTMsMC40NDctMSwxLTFzMSwwLjQ0NywxLDF2NGMwLDAuNTUzLTAuNDQ3LDEtMSwxcy0xLTAuNDQ3LTEtMVY1eiBNNDAsNDRINlY4aDR2MmMwLDEuMTA0LDAuODk2LDIsMiwyaDIgICAgYzEuMTA0LDAsMi0wLjg5NiwyLTJWOGgxNHYyYzAsMS4xMDQsMC44OTYsMiwyLDJoMmMxLjEwNCwwLDItMC44OTYsMi0yVjhoNFY0NHogTTM0LDIwSDIwYy0wLjU1MywwLTEsMC40NDctMSwxczAuNDQ3LDEsMSwxaDE0ICAgIGMwLjU1MywwLDEtMC40NDcsMS0xUzM0LjU1MywyMCwzNCwyMHogTTMwLDMwSDIwYy0wLjU1MywwLTEsMC40NDctMSwxczAuNDQ3LDEsMSwxaDEwYzAuNTUzLDAsMS0wLjQ0NywxLTFTMzAuNTUzLDMwLDMwLDMweiIvPiYjeGE7CTwvZz4mI3hhOzwvZz4mI3hhOzwvc3ZnPg==" parent="1" vertex="1">
          <mxGeometry x="840" y="340" width="48" height="48" as="geometry" />
        </mxCell>
      </root>
    </mxGraphModel>
  </diagram>
  <diagram name="Material Process" id="GcZoCR8NptrMwhLGVQL2">
    <mxGraphModel dx="1422" dy="762" grid="1" gridSize="10" guides="1" tooltips="1" connect="1" arrows="1" fold="1" page="1" pageScale="1" pageWidth="1169" pageHeight="827" math="0" shadow="0">
      <root>
        <mxCell id="CEn9OiNNHKl83sFhhU51-0" />
        <mxCell id="CEn9OiNNHKl83sFhhU51-1" parent="CEn9OiNNHKl83sFhhU51-0" />
        <mxCell id="CEn9OiNNHKl83sFhhU51-2" value="Company Material Receiving Procedure" style="text;html=1;strokeColor=none;fillColor=none;align=center;verticalAlign=middle;whiteSpace=wrap;rounded=0;fontStyle=1;fontSize=20;fontColor=#4D4D4D;" vertex="1" parent="CEn9OiNNHKl83sFhhU51-1">
          <mxGeometry x="189.5" y="50" width="790" height="30" as="geometry" />
        </mxCell>
        <mxCell id="CEn9OiNNHKl83sFhhU51-3" value="" style="line;strokeWidth=2;html=1;fontSize=20;fontColor=#4D4D4D;" vertex="1" parent="CEn9OiNNHKl83sFhhU51-1">
          <mxGeometry x="103.5" y="80" width="960" height="10" as="geometry" />
        </mxCell>
        <mxCell id="e5HsoG5m7U5WkFFRRlpW-2" style="edgeStyle=orthogonalEdgeStyle;rounded=0;orthogonalLoop=1;jettySize=auto;html=1;" edge="1" parent="CEn9OiNNHKl83sFhhU51-1" source="e5HsoG5m7U5WkFFRRlpW-0" target="e5HsoG5m7U5WkFFRRlpW-1">
          <mxGeometry relative="1" as="geometry" />
        </mxCell>
        <mxCell id="e5HsoG5m7U5WkFFRRlpW-0" value="Purchase Request Form (PRF)" style="shape=image;verticalLabelPosition=bottom;verticalAlign=top;aspect=fixed;image=data:image/svg+xml,PHN2ZyB4bWxucz0iaHR0cDovL3d3dy53My5vcmcvMjAwMC9zdmciIHhtbG5zOnhsaW5rPSJodHRwOi8vd3d3LnczLm9yZy8xOTk5L3hsaW5rIiB2ZXJzaW9uPSIxLjEiIGlkPSJMYXllcl8xIiB4PSIwcHgiIHk9IjBweCIgd2lkdGg9IjQ4cHgiIGhlaWdodD0iNDhweCIgdmlld0JveD0iMCAwIDQ4IDQ4IiBlbmFibGUtYmFja2dyb3VuZD0ibmV3IDAgMCA0OCA0OCIgeG1sOnNwYWNlPSJwcmVzZXJ2ZSI+JiN4YTs8ZyBpZD0iY29sb3JfNTFfIj4mI3hhOwk8Zz4mI3hhOwkJPHBhdGggZmlsbD0iIzg5OENDNSIgZD0iTTQzLDZoLTV2NGMwLDEuMTA0LTAuODk2LDItMiwyaC0yYy0xLjEwNCwwLTItMC44OTYtMi0yVjZIMTh2NGMwLDEuMTA0LTAuODk2LDItMiwyaC0yICAgIGMtMS4xMDQsMC0yLTAuODk2LTItMlY2SDlDOC40NDcsNiw4LDYuNDQ3LDgsN3YzOGMwLDAuNTUzLDAuNDQ3LDEsMSwxaDM0YzAuNTUzLDAsMS0wLjQ0NywxLTFWN0M0NCw2LjQ0Nyw0My41NTMsNiw0Myw2eiIvPiYjeGE7CTwvZz4mI3hhOzwvZz4mI3hhOzxnIGlkPSJvdXRsaW5lXzQ5XyI+JiN4YTsJPGc+JiN4YTsJCTxwYXRoIGZpbGw9IiMzODRENjgiIGQ9Ik0xNS43MTUsMjguMjg1Yy0wLjM3NS0wLjM3NS0wLjk4Mi0wLjM3NS0xLjM1NywwTDEzLDI5LjY0M2wtMS4zNTctMS4zNTcgICAgYy0wLjM3NS0wLjM3NS0wLjk4Mi0wLjM3NS0xLjM1NywwYy0wLjM3NSwwLjM3NC0wLjM3NSwwLjk4MiwwLDEuMzU3TDExLjY0MywzMWwtMS4zNTcsMS4zNTdjLTAuMzc1LDAuMzc1LTAuMzc1LDAuOTgzLDAsMS4zNTcgICAgYzAuMzc1LDAuMzc1LDAuOTgyLDAuMzc1LDEuMzU3LDBMMTMsMzIuMzU3bDEuMzU3LDEuMzU3YzAuMzc1LDAuMzc1LDAuOTgyLDAuMzc1LDEuMzU3LDBjMC4zNzUtMC4zNzQsMC4zNzUtMC45ODIsMC0xLjM1NyAgICBMMTQuMzU3LDMxbDEuMzU3LTEuMzU3QzE2LjA5LDI5LjI2OCwxNi4wOSwyOC42NTksMTUuNzE1LDI4LjI4NXogTTE1LjcxNSwxOC4yODVjLTAuMzc1LTAuMzc1LTAuOTgyLTAuMzc1LTEuMzU3LDBMMTMsMTkuNjQzICAgIGwtMS4zNTctMS4zNTdjLTAuMzc1LTAuMzc1LTAuOTgyLTAuMzc1LTEuMzU3LDBjLTAuMzc1LDAuMzc0LTAuMzc1LDAuOTgyLDAsMS4zNTdMMTEuNjQzLDIxbC0xLjM1NywxLjM1NyAgICBjLTAuMzc1LDAuMzc1LTAuMzc1LDAuOTgyLDAsMS4zNTdzMC45ODIsMC4zNzUsMS4zNTcsMEwxMywyMi4zNTdsMS4zNTcsMS4zNTdjMC4zNzUsMC4zNzUsMC45ODIsMC4zNzUsMS4zNTcsMCAgICBzMC4zNzUtMC45ODIsMC0xLjM1N0wxNC4zNTcsMjFsMS4zNTctMS4zNTdDMTYuMDksMTkuMjY4LDE2LjA5LDE4LjY1OSwxNS43MTUsMTguMjg1eiBNNDEsNmgtNVY0YzAtMS4xMDQtMC44OTYtMi0yLTJoLTIgICAgYy0xLjEwNCwwLTIsMC44OTYtMiwydjJIMTZWNGMwLTEuMTA0LTAuODk2LTItMi0yaC0yYy0xLjEwNCwwLTIsMC44OTYtMiwydjJINUM0LjQ0Nyw2LDQsNi40NDcsNCw3djM4YzAsMC41NTMsMC40NDcsMSwxLDFoMzYgICAgYzAuNTUzLDAsMS0wLjQ0NywxLTFWN0M0Miw2LjQ0Nyw0MS41NTMsNiw0MSw2eiBNMzIsNWMwLTAuNTUzLDAuNDQ3LTEsMS0xczEsMC40NDcsMSwxdjRjMCwwLjU1My0wLjQ0NywxLTEsMXMtMS0wLjQ0Ny0xLTFWNXogICAgIE0xMiw1YzAtMC41NTMsMC40NDctMSwxLTFzMSwwLjQ0NywxLDF2NGMwLDAuNTUzLTAuNDQ3LDEtMSwxcy0xLTAuNDQ3LTEtMVY1eiBNNDAsNDRINlY4aDR2MmMwLDEuMTA0LDAuODk2LDIsMiwyaDIgICAgYzEuMTA0LDAsMi0wLjg5NiwyLTJWOGgxNHYyYzAsMS4xMDQsMC44OTYsMiwyLDJoMmMxLjEwNCwwLDItMC44OTYsMi0yVjhoNFY0NHogTTM0LDIwSDIwYy0wLjU1MywwLTEsMC40NDctMSwxczAuNDQ3LDEsMSwxaDE0ICAgIGMwLjU1MywwLDEtMC40NDcsMS0xUzM0LjU1MywyMCwzNCwyMHogTTMwLDMwSDIwYy0wLjU1MywwLTEsMC40NDctMSwxczAuNDQ3LDEsMSwxaDEwYzAuNTUzLDAsMS0wLjQ0NywxLTFTMzAuNTUzLDMwLDMwLDMweiIvPiYjeGE7CTwvZz4mI3hhOzwvZz4mI3hhOzwvc3ZnPg==" vertex="1" parent="CEn9OiNNHKl83sFhhU51-1">
          <mxGeometry x="310" y="200" width="48" height="48" as="geometry" />
        </mxCell>
        <mxCell id="e5HsoG5m7U5WkFFRRlpW-8" style="edgeStyle=orthogonalEdgeStyle;rounded=0;orthogonalLoop=1;jettySize=auto;html=1;" edge="1" parent="CEn9OiNNHKl83sFhhU51-1" source="e5HsoG5m7U5WkFFRRlpW-1" target="e5HsoG5m7U5WkFFRRlpW-6">
          <mxGeometry relative="1" as="geometry" />
        </mxCell>
        <mxCell id="e5HsoG5m7U5WkFFRRlpW-1" value="Purchase Orders (PO)" style="shape=image;verticalLabelPosition=bottom;verticalAlign=top;aspect=fixed;image=data:image/svg+xml,PHN2ZyB4bWxucz0iaHR0cDovL3d3dy53My5vcmcvMjAwMC9zdmciIHhtbG5zOnhsaW5rPSJodHRwOi8vd3d3LnczLm9yZy8xOTk5L3hsaW5rIiB2ZXJzaW9uPSIxLjEiIGlkPSJMYXllcl8xIiB4PSIwcHgiIHk9IjBweCIgd2lkdGg9IjQ4cHgiIGhlaWdodD0iNDhweCIgdmlld0JveD0iMCAwIDQ4IDQ4IiBlbmFibGUtYmFja2dyb3VuZD0ibmV3IDAgMCA0OCA0OCIgeG1sOnNwYWNlPSJwcmVzZXJ2ZSI+JiN4YTs8ZyBpZD0iY29sb3JfNTFfIj4mI3hhOwk8Zz4mI3hhOwkJPHBhdGggZmlsbD0iIzg5OENDNSIgZD0iTTQzLDZoLTV2NGMwLDEuMTA0LTAuODk2LDItMiwyaC0yYy0xLjEwNCwwLTItMC44OTYtMi0yVjZIMTh2NGMwLDEuMTA0LTAuODk2LDItMiwyaC0yICAgIGMtMS4xMDQsMC0yLTAuODk2LTItMlY2SDlDOC40NDcsNiw4LDYuNDQ3LDgsN3YzOGMwLDAuNTUzLDAuNDQ3LDEsMSwxaDM0YzAuNTUzLDAsMS0wLjQ0NywxLTFWN0M0NCw2LjQ0Nyw0My41NTMsNiw0Myw2eiIvPiYjeGE7CTwvZz4mI3hhOzwvZz4mI3hhOzxnIGlkPSJvdXRsaW5lXzQ5XyI+JiN4YTsJPGc+JiN4YTsJCTxwYXRoIGZpbGw9IiMzODRENjgiIGQ9Ik0xNS43MTUsMjguMjg1Yy0wLjM3NS0wLjM3NS0wLjk4Mi0wLjM3NS0xLjM1NywwTDEzLDI5LjY0M2wtMS4zNTctMS4zNTcgICAgYy0wLjM3NS0wLjM3NS0wLjk4Mi0wLjM3NS0xLjM1NywwYy0wLjM3NSwwLjM3NC0wLjM3NSwwLjk4MiwwLDEuMzU3TDExLjY0MywzMWwtMS4zNTcsMS4zNTdjLTAuMzc1LDAuMzc1LTAuMzc1LDAuOTgzLDAsMS4zNTcgICAgYzAuMzc1LDAuMzc1LDAuOTgyLDAuMzc1LDEuMzU3LDBMMTMsMzIuMzU3bDEuMzU3LDEuMzU3YzAuMzc1LDAuMzc1LDAuOTgyLDAuMzc1LDEuMzU3LDBjMC4zNzUtMC4zNzQsMC4zNzUtMC45ODIsMC0xLjM1NyAgICBMMTQuMzU3LDMxbDEuMzU3LTEuMzU3QzE2LjA5LDI5LjI2OCwxNi4wOSwyOC42NTksMTUuNzE1LDI4LjI4NXogTTE1LjcxNSwxOC4yODVjLTAuMzc1LTAuMzc1LTAuOTgyLTAuMzc1LTEuMzU3LDBMMTMsMTkuNjQzICAgIGwtMS4zNTctMS4zNTdjLTAuMzc1LTAuMzc1LTAuOTgyLTAuMzc1LTEuMzU3LDBjLTAuMzc1LDAuMzc0LTAuMzc1LDAuOTgyLDAsMS4zNTdMMTEuNjQzLDIxbC0xLjM1NywxLjM1NyAgICBjLTAuMzc1LDAuMzc1LTAuMzc1LDAuOTgyLDAsMS4zNTdzMC45ODIsMC4zNzUsMS4zNTcsMEwxMywyMi4zNTdsMS4zNTcsMS4zNTdjMC4zNzUsMC4zNzUsMC45ODIsMC4zNzUsMS4zNTcsMCAgICBzMC4zNzUtMC45ODIsMC0xLjM1N0wxNC4zNTcsMjFsMS4zNTctMS4zNTdDMTYuMDksMTkuMjY4LDE2LjA5LDE4LjY1OSwxNS43MTUsMTguMjg1eiBNNDEsNmgtNVY0YzAtMS4xMDQtMC44OTYtMi0yLTJoLTIgICAgYy0xLjEwNCwwLTIsMC44OTYtMiwydjJIMTZWNGMwLTEuMTA0LTAuODk2LTItMi0yaC0yYy0xLjEwNCwwLTIsMC44OTYtMiwydjJINUM0LjQ0Nyw2LDQsNi40NDcsNCw3djM4YzAsMC41NTMsMC40NDcsMSwxLDFoMzYgICAgYzAuNTUzLDAsMS0wLjQ0NywxLTFWN0M0Miw2LjQ0Nyw0MS41NTMsNiw0MSw2eiBNMzIsNWMwLTAuNTUzLDAuNDQ3LTEsMS0xczEsMC40NDcsMSwxdjRjMCwwLjU1My0wLjQ0NywxLTEsMXMtMS0wLjQ0Ny0xLTFWNXogICAgIE0xMiw1YzAtMC41NTMsMC40NDctMSwxLTFzMSwwLjQ0NywxLDF2NGMwLDAuNTUzLTAuNDQ3LDEtMSwxcy0xLTAuNDQ3LTEtMVY1eiBNNDAsNDRINlY4aDR2MmMwLDEuMTA0LDAuODk2LDIsMiwyaDIgICAgYzEuMTA0LDAsMi0wLjg5NiwyLTJWOGgxNHYyYzAsMS4xMDQsMC44OTYsMiwyLDJoMmMxLjEwNCwwLDItMC44OTYsMi0yVjhoNFY0NHogTTM0LDIwSDIwYy0wLjU1MywwLTEsMC40NDctMSwxczAuNDQ3LDEsMSwxaDE0ICAgIGMwLjU1MywwLDEtMC40NDcsMS0xUzM0LjU1MywyMCwzNCwyMHogTTMwLDMwSDIwYy0wLjU1MywwLTEsMC40NDctMSwxczAuNDQ3LDEsMSwxaDEwYzAuNTUzLDAsMS0wLjQ0NywxLTFTMzAuNTUzLDMwLDMwLDMweiIvPiYjeGE7CTwvZz4mI3hhOzwvZz4mI3hhOzwvc3ZnPg==" vertex="1" parent="CEn9OiNNHKl83sFhhU51-1">
          <mxGeometry x="520" y="200" width="48" height="48" as="geometry" />
        </mxCell>
        <mxCell id="TlFFVeA60dL-8Oulgm2p-2" style="edgeStyle=orthogonalEdgeStyle;rounded=0;orthogonalLoop=1;jettySize=auto;html=1;" edge="1" parent="CEn9OiNNHKl83sFhhU51-1" source="e5HsoG5m7U5WkFFRRlpW-6" target="TlFFVeA60dL-8Oulgm2p-1">
          <mxGeometry relative="1" as="geometry" />
        </mxCell>
        <mxCell id="e5HsoG5m7U5WkFFRRlpW-6" value="Purchase" style="shape=image;verticalLabelPosition=bottom;verticalAlign=top;aspect=fixed;image=data:image/svg+xml,PHN2ZyB4bWxucz0iaHR0cDovL3d3dy53My5vcmcvMjAwMC9zdmciIHhtbG5zOnhsaW5rPSJodHRwOi8vd3d3LnczLm9yZy8xOTk5L3hsaW5rIiB2ZXJzaW9uPSIxLjEiIGlkPSJMYXllcl8xIiB4PSIwcHgiIHk9IjBweCIgd2lkdGg9IjQ4cHgiIGhlaWdodD0iNDhweCIgdmlld0JveD0iMCAwIDQ4IDQ4IiBlbmFibGUtYmFja2dyb3VuZD0ibmV3IDAgMCA0OCA0OCIgeG1sOnNwYWNlPSJwcmVzZXJ2ZSI+JiN4YTs8ZyBpZD0iY29sb3JfMTdfIj4mI3hhOwk8Zz4mI3hhOwkJPHBhdGggZmlsbD0iIzg5OENDNSIgZD0iTTQ1LDE3SDE2Yy0wLjU1MywwLTEsMC40NDctMSwxbDIsMTVjMCwwLjU1MywwLjQ0NywxLDEsMWgyM2MwLjU1MywwLDEtMC40NDcsMS0xbDQtMTUgICAgQzQ2LDE3LjQ0Nyw0NS41NTMsMTcsNDUsMTd6Ii8+JiN4YTsJPC9nPiYjeGE7PC9nPiYjeGE7PGcgaWQ9Im91dGxpbmVfMTZfIj4mI3hhOwk8Zz4mI3hhOwkJPHBhdGggZmlsbD0iIzM4NEQ2OCIgZD0iTTE3LDQwYy0xLjY1NiwwLTMsMS4zNDMtMywzczEuMzQ0LDMsMywzczMtMS4zNDMsMy0zUzE4LjY1Niw0MCwxNyw0MHogTTE3LDQ0Yy0wLjU1MywwLTEtMC40NDctMS0xICAgIHMwLjQ0Ny0xLDEtMXMxLDAuNDQ3LDEsMVMxNy41NTMsNDQsMTcsNDR6IE00MS45NTIsMzEuMjM4bDAuMDE5LDAuMDA0bDQtMTZsLTAuMDE5LTAuMDA0QzQ1Ljk3MiwxNS4xNiw0NiwxNS4wODQsNDYsMTUgICAgYzAtMC41NTMtMC40NDctMS0xLTFIMTEuNjI5TDkuOTg5LDIuODU0TDkuOTcxLDIuODU3QzkuODk5LDIuMzc2LDkuNTAyLDIsOSwySDNDMi40NDcsMiwyLDIuNDQ3LDIsM3MwLjQ0NywxLDEsMWg1LjEzNyAgICBsNC44NzQsMzMuMTQ2bDAuMDE5LTAuMDAzQzEzLjEwMSwzNy42MjQsMTMuNDk4LDM4LDE0LDM4aDI4YzAuNTUzLDAsMS0wLjQ0NywxLTFzLTAuNDQ3LTEtMS0xSDE0Ljg2M2wtMC41ODgtNEg0MSAgICBDNDEuNDY4LDMyLDQxLjg0MywzMS42NzIsNDEuOTUyLDMxLjIzOHogTTE0LDMwYy0wLjAwNiwwLTAuMDEyLDAuMDA0LTAuMDE4LDAuMDA0TDExLjkyMiwxNmgzMS43OTdsLTEsNEgxOWMtMC41NTMsMC0xLDAuNDQ3LTEsMSAgICBzMC40NDcsMSwxLDFoMjMuMjE5bC0wLjUsMkgyNmMtMC41NTMsMC0xLDAuNDQ3LTEsMXMwLjQ0NywxLDEsMWgxNS4yMTlsLTEsNEgxNHogTTM4LDQwYy0xLjY1NiwwLTMsMS4zNDMtMywzczEuMzQ0LDMsMywzICAgIHMzLTEuMzQzLDMtM1MzOS42NTYsNDAsMzgsNDB6IE0zOCw0NGMtMC41NTMsMC0xLTAuNDQ3LTEtMXMwLjQ0Ny0xLDEtMXMxLDAuNDQ3LDEsMVMzOC41NTMsNDQsMzgsNDR6Ii8+JiN4YTsJPC9nPiYjeGE7PC9nPiYjeGE7PC9zdmc+" vertex="1" parent="CEn9OiNNHKl83sFhhU51-1">
          <mxGeometry x="700" y="200" width="48" height="48" as="geometry" />
        </mxCell>
        <mxCell id="3I2RHyC-Y80Sz1JqAHkW-0" style="edgeStyle=orthogonalEdgeStyle;rounded=0;orthogonalLoop=1;jettySize=auto;html=1;" edge="1" parent="CEn9OiNNHKl83sFhhU51-1" source="e5HsoG5m7U5WkFFRRlpW-10" target="e5HsoG5m7U5WkFFRRlpW-12">
          <mxGeometry relative="1" as="geometry" />
        </mxCell>
        <mxCell id="e5HsoG5m7U5WkFFRRlpW-10" value="Good Receipt Notes (GRN)" style="shape=image;verticalLabelPosition=bottom;verticalAlign=top;aspect=fixed;image=data:image/svg+xml,PHN2ZyB4bWxucz0iaHR0cDovL3d3dy53My5vcmcvMjAwMC9zdmciIHhtbG5zOnhsaW5rPSJodHRwOi8vd3d3LnczLm9yZy8xOTk5L3hsaW5rIiB2ZXJzaW9uPSIxLjEiIGlkPSJMYXllcl8xIiB4PSIwcHgiIHk9IjBweCIgd2lkdGg9IjQ4cHgiIGhlaWdodD0iNDhweCIgdmlld0JveD0iMCAwIDQ4IDQ4IiBlbmFibGUtYmFja2dyb3VuZD0ibmV3IDAgMCA0OCA0OCIgeG1sOnNwYWNlPSJwcmVzZXJ2ZSI+JiN4YTs8ZyBpZD0iY29sb3JfNTFfIj4mI3hhOwk8Zz4mI3hhOwkJPHBhdGggZmlsbD0iIzg5OENDNSIgZD0iTTQzLDZoLTV2NGMwLDEuMTA0LTAuODk2LDItMiwyaC0yYy0xLjEwNCwwLTItMC44OTYtMi0yVjZIMTh2NGMwLDEuMTA0LTAuODk2LDItMiwyaC0yICAgIGMtMS4xMDQsMC0yLTAuODk2LTItMlY2SDlDOC40NDcsNiw4LDYuNDQ3LDgsN3YzOGMwLDAuNTUzLDAuNDQ3LDEsMSwxaDM0YzAuNTUzLDAsMS0wLjQ0NywxLTFWN0M0NCw2LjQ0Nyw0My41NTMsNiw0Myw2eiIvPiYjeGE7CTwvZz4mI3hhOzwvZz4mI3hhOzxnIGlkPSJvdXRsaW5lXzQ5XyI+JiN4YTsJPGc+JiN4YTsJCTxwYXRoIGZpbGw9IiMzODRENjgiIGQ9Ik0xNS43MTUsMjguMjg1Yy0wLjM3NS0wLjM3NS0wLjk4Mi0wLjM3NS0xLjM1NywwTDEzLDI5LjY0M2wtMS4zNTctMS4zNTcgICAgYy0wLjM3NS0wLjM3NS0wLjk4Mi0wLjM3NS0xLjM1NywwYy0wLjM3NSwwLjM3NC0wLjM3NSwwLjk4MiwwLDEuMzU3TDExLjY0MywzMWwtMS4zNTcsMS4zNTdjLTAuMzc1LDAuMzc1LTAuMzc1LDAuOTgzLDAsMS4zNTcgICAgYzAuMzc1LDAuMzc1LDAuOTgyLDAuMzc1LDEuMzU3LDBMMTMsMzIuMzU3bDEuMzU3LDEuMzU3YzAuMzc1LDAuMzc1LDAuOTgyLDAuMzc1LDEuMzU3LDBjMC4zNzUtMC4zNzQsMC4zNzUtMC45ODIsMC0xLjM1NyAgICBMMTQuMzU3LDMxbDEuMzU3LTEuMzU3QzE2LjA5LDI5LjI2OCwxNi4wOSwyOC42NTksMTUuNzE1LDI4LjI4NXogTTE1LjcxNSwxOC4yODVjLTAuMzc1LTAuMzc1LTAuOTgyLTAuMzc1LTEuMzU3LDBMMTMsMTkuNjQzICAgIGwtMS4zNTctMS4zNTdjLTAuMzc1LTAuMzc1LTAuOTgyLTAuMzc1LTEuMzU3LDBjLTAuMzc1LDAuMzc0LTAuMzc1LDAuOTgyLDAsMS4zNTdMMTEuNjQzLDIxbC0xLjM1NywxLjM1NyAgICBjLTAuMzc1LDAuMzc1LTAuMzc1LDAuOTgyLDAsMS4zNTdzMC45ODIsMC4zNzUsMS4zNTcsMEwxMywyMi4zNTdsMS4zNTcsMS4zNTdjMC4zNzUsMC4zNzUsMC45ODIsMC4zNzUsMS4zNTcsMCAgICBzMC4zNzUtMC45ODIsMC0xLjM1N0wxNC4zNTcsMjFsMS4zNTctMS4zNTdDMTYuMDksMTkuMjY4LDE2LjA5LDE4LjY1OSwxNS43MTUsMTguMjg1eiBNNDEsNmgtNVY0YzAtMS4xMDQtMC44OTYtMi0yLTJoLTIgICAgYy0xLjEwNCwwLTIsMC44OTYtMiwydjJIMTZWNGMwLTEuMTA0LTAuODk2LTItMi0yaC0yYy0xLjEwNCwwLTIsMC44OTYtMiwydjJINUM0LjQ0Nyw2LDQsNi40NDcsNCw3djM4YzAsMC41NTMsMC40NDcsMSwxLDFoMzYgICAgYzAuNTUzLDAsMS0wLjQ0NywxLTFWN0M0Miw2LjQ0Nyw0MS41NTMsNiw0MSw2eiBNMzIsNWMwLTAuNTUzLDAuNDQ3LTEsMS0xczEsMC40NDcsMSwxdjRjMCwwLjU1My0wLjQ0NywxLTEsMXMtMS0wLjQ0Ny0xLTFWNXogICAgIE0xMiw1YzAtMC41NTMsMC40NDctMSwxLTFzMSwwLjQ0NywxLDF2NGMwLDAuNTUzLTAuNDQ3LDEtMSwxcy0xLTAuNDQ3LTEtMVY1eiBNNDAsNDRINlY4aDR2MmMwLDEuMTA0LDAuODk2LDIsMiwyaDIgICAgYzEuMTA0LDAsMi0wLjg5NiwyLTJWOGgxNHYyYzAsMS4xMDQsMC44OTYsMiwyLDJoMmMxLjEwNCwwLDItMC44OTYsMi0yVjhoNFY0NHogTTM0LDIwSDIwYy0wLjU1MywwLTEsMC40NDctMSwxczAuNDQ3LDEsMSwxaDE0ICAgIGMwLjU1MywwLDEtMC40NDcsMS0xUzM0LjU1MywyMCwzNCwyMHogTTMwLDMwSDIwYy0wLjU1MywwLTEsMC40NDctMSwxczAuNDQ3LDEsMSwxaDEwYzAuNTUzLDAsMS0wLjQ0NywxLTFTMzAuNTUzLDMwLDMwLDMweiIvPiYjeGE7CTwvZz4mI3hhOzwvZz4mI3hhOzwvc3ZnPg==" vertex="1" parent="CEn9OiNNHKl83sFhhU51-1">
          <mxGeometry x="700" y="424" width="48" height="48" as="geometry" />
        </mxCell>
        <mxCell id="3I2RHyC-Y80Sz1JqAHkW-2" style="edgeStyle=orthogonalEdgeStyle;rounded=0;orthogonalLoop=1;jettySize=auto;html=1;" edge="1" parent="CEn9OiNNHKl83sFhhU51-1" source="e5HsoG5m7U5WkFFRRlpW-12" target="3I2RHyC-Y80Sz1JqAHkW-1">
          <mxGeometry relative="1" as="geometry" />
        </mxCell>
        <mxCell id="e5HsoG5m7U5WkFFRRlpW-12" value="Warehouse Material" style="shape=image;verticalLabelPosition=bottom;verticalAlign=top;aspect=fixed;image=data:image/svg+xml,PHN2ZyB4bWxucz0iaHR0cDovL3d3dy53My5vcmcvMjAwMC9zdmciIHhtbG5zOnhsaW5rPSJodHRwOi8vd3d3LnczLm9yZy8xOTk5L3hsaW5rIiB2ZXJzaW9uPSIxLjEiIGlkPSJMYXllcl8xIiB4PSIwcHgiIHk9IjBweCIgd2lkdGg9IjQ4cHgiIGhlaWdodD0iNDhweCIgdmlld0JveD0iMCAwIDQ4IDQ4IiBlbmFibGUtYmFja2dyb3VuZD0ibmV3IDAgMCA0OCA0OCIgeG1sOnNwYWNlPSJwcmVzZXJ2ZSI+JiN4YTs8ZyBpZD0iY29sb3JfMjZfIj4mI3hhOwk8Zz4mI3hhOwkJPHBhdGggZmlsbD0iI0ZGREE4RSIgZD0iTTE1LDIxLjIwNUMxNC45ODIsMjEuMzcxLDE0Ljk5OSwyMS40MjYsMTUsMjEuMjA1TDE1LDIxLjIwNXogTTE1LDIxLjIwNSAgICBjMC4wMDEtMC4wMDIsMC4wMDEtMC4wMDQsMC4wMDEtMC4wMDZ2LTAuMDJDMTUuMDAxLDIxLjE5MSwxNSwyMS4xOTMsMTUsMjEuMjA1eiBNNDAuOTgxLDIxLjA0OCAgICBjLTAuMDI0LTAuMjI5LTAuMTI5LTAuNDI5LTAuMjc4LTAuNTgzbDAuMDA1LTAuMDA1bC0wLjAyOS0wLjAyOWMtMC4wMDItMC4wMDEtMC4wMDMtMC4wMDMtMC4wMDQtMC4wMDRMMjguNzA4LDguNzg0ICAgIGMwLDAtMC4wODYtMC4xMTYtMC4zNDgtMC4yMTVjLTAuMjA5LTAuMDkyLTAuNDQ5LTAuMDk1LTAuNjcyLTAuMDA5Yy0wLjI5OSwwLjA5OC0wLjM5NSwwLjIyNC0wLjM5NSwwLjIyNGwtMTEuOTc1LDExLjY1ICAgIGMtMC4yMjIsMC4yMDUtMC4yOTYsMC41NTktMC4zMTgsMC43NjR2MjIuMzY4YzAsMC41MTUsMC40MTYsMC45MzMsMC45MjksMC45MzNoMjQuMTQzYzAuNTEzLDAsMC45MjktMC40MTgsMC45MjktMC45MzMgICAgQzQxLjAwMSw0My41NjYsNDAuOTgxLDIxLjMzNSw0MC45ODEsMjEuMDQ4eiIvPiYjeGE7CTwvZz4mI3hhOzwvZz4mI3hhOzxnIGlkPSJvdXRsaW5lXzI1XyI+JiN4YTsJPGc+JiN4YTsJCTxwYXRoIGZpbGw9IiMzODRENjgiIGQ9Ik0xNC4wMDEsMjYuNDk5aDEzLjY0OGwtMy4zNzMsMy4zNjJjLTAuMzc1LDAuMzczLTAuMzc1LDAuOTc4LDAsMS4zNTFjMC4zNzQsMC4zNzMsMC45ODIsMC4zNzMsMS4zNTcsMCAgICBsNS4wNzItNS4wNTNjMC4zNzUtMC4zNzMsMC4zNzUtMC45NzgsMC0xLjM1MWwtNS4wNzItNS4wNTNjLTAuMzc1LTAuMzczLTAuOTgzLTAuMzczLTEuMzU3LDBjLTAuMzc1LDAuMzczLTAuMzc1LDAuOTc4LDAsMS4zNTEgICAgbDMuNDAzLDMuMzkzSDE0LjAwMWMtMC41NTMsMC0xLDAuNDQ3LTEsMVMxMy40NDgsMjYuNDk5LDE0LjAwMSwyNi40OTl6IE0xMS4wMDEsMzguNDk5Yy0xLjY1NiwwLTMsMS4zNDMtMywzczEuMzQ0LDMsMywzICAgIHMzLTEuMzQzLDMtM1MxMi42NTcsMzguNDk5LDExLjAwMSwzOC40OTl6IE0xMS4wMDEsNDIuNDk5Yy0wLjU1MywwLTEtMC40NDctMS0xczAuNDQ3LTEsMS0xczEsMC40NDcsMSwxICAgIFMxMS41NTQsNDIuNDk5LDExLjAwMSw0Mi40OTl6IE00NS43MDQsMjIuNzkzTDI2LjY2LDMuNzk1Yy0wLjM5Mi0wLjM5Mi0xLjAyOC0wLjM5Mi0xLjQyMSwwbC05Ljk0MSw5LjkxNiAgICBjLTAuMzkzLDAuMzkxLTAuMzkzLDEuMDI1LDAsMS40MTZjMC4zOTMsMC4zOTIsMS4wMjcsMC4zOTIsMS40MiwwTDI1Ljk1LDUuOTJsMTguMzM0LDE4LjI5YzAuMzkzLDAuMzkxLDEuMDI3LDAuMzkxLDEuNDIsMCAgICBDNDYuMDk3LDIzLjgxOCw0Ni4wOTcsMjMuMTg1LDQ1LjcwNCwyMi43OTN6IE00MC4wMDEsMjMuNDk5Yy0wLjU1MywwLTEsMC40NDctMSwxdjE4aC02di03YzAtMC41NTMtMC40NDctMS0xLTFoLTMgICAgYy0wLjU1MywwLTEsMC40NDctMSwxczAuNDQ3LDEsMSwxaDJ2N2MwLDAuNTUzLDAuNDQ3LDEsMSwxaDhjMC41NTMsMCwxLTAuNDQ3LDEtMXYtMTlDNDEuMDAxLDIzLjk0Niw0MC41NTQsMjMuNDk5LDQwLjAwMSwyMy40OTkgICAgeiBNMjIuMDAxLDM4LjQ5OWMtMS42NTYsMC0zLDEuMzQzLTMsM3MxLjM0NCwzLDMsM3MzLTEuMzQzLDMtM1MyMy42NTcsMzguNDk5LDIyLjAwMSwzOC40OTl6IE0yMi4wMDEsNDIuNDk5ICAgIGMtMC41NTMsMC0xLTAuNDQ3LTEtMXMwLjQ0Ny0xLDEtMXMxLDAuNDQ3LDEsMVMyMi41NTQsNDIuNDk5LDIyLjAwMSw0Mi40OTl6IE0yNS4wMDEsMzQuNDk5SDkuODU4TDcuOTg5LDIyLjM0N0w3Ljk3MSwyMi4zNSAgICBjLTAuMDc1LTAuNDc5LTAuNDctMC44NTEtMC45Ny0wLjg1MWgtNGMtMC41NTMsMC0xLDAuNDQ3LTEsMXMwLjQ0NywxLDEsMWgzLjE0M2wxLjg2OSwxMi4xNTJsMC4wMTktMC4wMDMgICAgYzAuMDc1LDAuNDc5LDAuNDcsMC44NTEsMC45NywwLjg1MWgxNmMwLjU1MywwLDEtMC40NDcsMS0xUzI1LjU1NCwzNC40OTksMjUuMDAxLDM0LjQ5OXoiLz4mI3hhOwk8L2c+JiN4YTs8L2c+JiN4YTs8L3N2Zz4=" vertex="1" parent="CEn9OiNNHKl83sFhhU51-1">
          <mxGeometry x="520" y="424" width="48" height="48" as="geometry" />
        </mxCell>
        <mxCell id="TlFFVeA60dL-8Oulgm2p-6" style="edgeStyle=orthogonalEdgeStyle;rounded=0;orthogonalLoop=1;jettySize=auto;html=1;" edge="1" parent="CEn9OiNNHKl83sFhhU51-1" source="3I2RHyC-Y80Sz1JqAHkW-1" target="TlFFVeA60dL-8Oulgm2p-5">
          <mxGeometry relative="1" as="geometry" />
        </mxCell>
        <mxCell id="TlFFVeA60dL-8Oulgm2p-8" style="edgeStyle=orthogonalEdgeStyle;rounded=0;orthogonalLoop=1;jettySize=auto;html=1;" edge="1" parent="CEn9OiNNHKl83sFhhU51-1" source="3I2RHyC-Y80Sz1JqAHkW-1" target="TlFFVeA60dL-8Oulgm2p-7">
          <mxGeometry relative="1" as="geometry" />
        </mxCell>
        <mxCell id="3I2RHyC-Y80Sz1JqAHkW-1" value="Material Issue" style="shape=image;verticalLabelPosition=bottom;verticalAlign=top;aspect=fixed;image=data:image/svg+xml,PHN2ZyB4bWxucz0iaHR0cDovL3d3dy53My5vcmcvMjAwMC9zdmciIHhtbG5zOnhsaW5rPSJodHRwOi8vd3d3LnczLm9yZy8xOTk5L3hsaW5rIiB2ZXJzaW9uPSIxLjEiIGlkPSJMYXllcl8xIiB4PSIwcHgiIHk9IjBweCIgd2lkdGg9IjQ4cHgiIGhlaWdodD0iNDhweCIgdmlld0JveD0iMCAwIDQ4IDQ4IiBlbmFibGUtYmFja2dyb3VuZD0ibmV3IDAgMCA0OCA0OCIgeG1sOnNwYWNlPSJwcmVzZXJ2ZSI+JiN4YTs8ZyBpZD0iY29sb3JfNTFfIj4mI3hhOwk8Zz4mI3hhOwkJPHBhdGggZmlsbD0iIzg5OENDNSIgZD0iTTQzLDZoLTV2NGMwLDEuMTA0LTAuODk2LDItMiwyaC0yYy0xLjEwNCwwLTItMC44OTYtMi0yVjZIMTh2NGMwLDEuMTA0LTAuODk2LDItMiwyaC0yICAgIGMtMS4xMDQsMC0yLTAuODk2LTItMlY2SDlDOC40NDcsNiw4LDYuNDQ3LDgsN3YzOGMwLDAuNTUzLDAuNDQ3LDEsMSwxaDM0YzAuNTUzLDAsMS0wLjQ0NywxLTFWN0M0NCw2LjQ0Nyw0My41NTMsNiw0Myw2eiIvPiYjeGE7CTwvZz4mI3hhOzwvZz4mI3hhOzxnIGlkPSJvdXRsaW5lXzQ5XyI+JiN4YTsJPGc+JiN4YTsJCTxwYXRoIGZpbGw9IiMzODRENjgiIGQ9Ik0xNS43MTUsMjguMjg1Yy0wLjM3NS0wLjM3NS0wLjk4Mi0wLjM3NS0xLjM1NywwTDEzLDI5LjY0M2wtMS4zNTctMS4zNTcgICAgYy0wLjM3NS0wLjM3NS0wLjk4Mi0wLjM3NS0xLjM1NywwYy0wLjM3NSwwLjM3NC0wLjM3NSwwLjk4MiwwLDEuMzU3TDExLjY0MywzMWwtMS4zNTcsMS4zNTdjLTAuMzc1LDAuMzc1LTAuMzc1LDAuOTgzLDAsMS4zNTcgICAgYzAuMzc1LDAuMzc1LDAuOTgyLDAuMzc1LDEuMzU3LDBMMTMsMzIuMzU3bDEuMzU3LDEuMzU3YzAuMzc1LDAuMzc1LDAuOTgyLDAuMzc1LDEuMzU3LDBjMC4zNzUtMC4zNzQsMC4zNzUtMC45ODIsMC0xLjM1NyAgICBMMTQuMzU3LDMxbDEuMzU3LTEuMzU3QzE2LjA5LDI5LjI2OCwxNi4wOSwyOC42NTksMTUuNzE1LDI4LjI4NXogTTE1LjcxNSwxOC4yODVjLTAuMzc1LTAuMzc1LTAuOTgyLTAuMzc1LTEuMzU3LDBMMTMsMTkuNjQzICAgIGwtMS4zNTctMS4zNTdjLTAuMzc1LTAuMzc1LTAuOTgyLTAuMzc1LTEuMzU3LDBjLTAuMzc1LDAuMzc0LTAuMzc1LDAuOTgyLDAsMS4zNTdMMTEuNjQzLDIxbC0xLjM1NywxLjM1NyAgICBjLTAuMzc1LDAuMzc1LTAuMzc1LDAuOTgyLDAsMS4zNTdzMC45ODIsMC4zNzUsMS4zNTcsMEwxMywyMi4zNTdsMS4zNTcsMS4zNTdjMC4zNzUsMC4zNzUsMC45ODIsMC4zNzUsMS4zNTcsMCAgICBzMC4zNzUtMC45ODIsMC0xLjM1N0wxNC4zNTcsMjFsMS4zNTctMS4zNTdDMTYuMDksMTkuMjY4LDE2LjA5LDE4LjY1OSwxNS43MTUsMTguMjg1eiBNNDEsNmgtNVY0YzAtMS4xMDQtMC44OTYtMi0yLTJoLTIgICAgYy0xLjEwNCwwLTIsMC44OTYtMiwydjJIMTZWNGMwLTEuMTA0LTAuODk2LTItMi0yaC0yYy0xLjEwNCwwLTIsMC44OTYtMiwydjJINUM0LjQ0Nyw2LDQsNi40NDcsNCw3djM4YzAsMC41NTMsMC40NDcsMSwxLDFoMzYgICAgYzAuNTUzLDAsMS0wLjQ0NywxLTFWN0M0Miw2LjQ0Nyw0MS41NTMsNiw0MSw2eiBNMzIsNWMwLTAuNTUzLDAuNDQ3LTEsMS0xczEsMC40NDcsMSwxdjRjMCwwLjU1My0wLjQ0NywxLTEsMXMtMS0wLjQ0Ny0xLTFWNXogICAgIE0xMiw1YzAtMC41NTMsMC40NDctMSwxLTFzMSwwLjQ0NywxLDF2NGMwLDAuNTUzLTAuNDQ3LDEtMSwxcy0xLTAuNDQ3LTEtMVY1eiBNNDAsNDRINlY4aDR2MmMwLDEuMTA0LDAuODk2LDIsMiwyaDIgICAgYzEuMTA0LDAsMi0wLjg5NiwyLTJWOGgxNHYyYzAsMS4xMDQsMC44OTYsMiwyLDJoMmMxLjEwNCwwLDItMC44OTYsMi0yVjhoNFY0NHogTTM0LDIwSDIwYy0wLjU1MywwLTEsMC40NDctMSwxczAuNDQ3LDEsMSwxaDE0ICAgIGMwLjU1MywwLDEtMC40NDcsMS0xUzM0LjU1MywyMCwzNCwyMHogTTMwLDMwSDIwYy0wLjU1MywwLTEsMC40NDctMSwxczAuNDQ3LDEsMSwxaDEwYzAuNTUzLDAsMS0wLjQ0NywxLTFTMzAuNTUzLDMwLDMwLDMweiIvPiYjeGE7CTwvZz4mI3hhOzwvZz4mI3hhOzwvc3ZnPg==" vertex="1" parent="CEn9OiNNHKl83sFhhU51-1">
          <mxGeometry x="310" y="424" width="48" height="48" as="geometry" />
        </mxCell>
        <mxCell id="TlFFVeA60dL-8Oulgm2p-3" style="edgeStyle=orthogonalEdgeStyle;rounded=0;orthogonalLoop=1;jettySize=auto;html=1;exitX=0.5;exitY=1;exitDx=0;exitDy=0;entryX=1;entryY=0.5;entryDx=0;entryDy=0;" edge="1" parent="CEn9OiNNHKl83sFhhU51-1" source="TlFFVeA60dL-8Oulgm2p-1" target="e5HsoG5m7U5WkFFRRlpW-10">
          <mxGeometry relative="1" as="geometry" />
        </mxCell>
        <mxCell id="TlFFVeA60dL-8Oulgm2p-1" value="Supplier Delivery" style="shape=image;verticalLabelPosition=bottom;verticalAlign=top;aspect=fixed;image=data:image/svg+xml,PHN2ZyB4bWxucz0iaHR0cDovL3d3dy53My5vcmcvMjAwMC9zdmciIHhtbG5zOnhsaW5rPSJodHRwOi8vd3d3LnczLm9yZy8xOTk5L3hsaW5rIiB2ZXJzaW9uPSIxLjEiIGlkPSJMYXllcl8xIiB4PSIwcHgiIHk9IjBweCIgd2lkdGg9IjQ4cHgiIGhlaWdodD0iNDhweCIgdmlld0JveD0iMCAwIDQ4IDQ4IiBlbmFibGUtYmFja2dyb3VuZD0ibmV3IDAgMCA0OCA0OCIgeG1sOnNwYWNlPSJwcmVzZXJ2ZSI+JiN4YTs8ZyBpZD0iY29sb3JfMzNfIj4mI3hhOwk8Zz4mI3hhOwkJPHBhdGggZmlsbD0iI0YxNjM2MiIgZD0iTTQ1LDIzaC01bC00LTEyYzAtMC41NTMtMC40NDctMS0xLTFoLTFoLTVIN2MtMC41NTMsMC0xLDAuNDQ3LTEsMXYyNGMwLDAuNTUzLDAuNDQ3LDEsMSwxaDI3ICAgIGMwLjE4NiwwLDAuMzUxLTAuMDY0LDAuNS0wLjE1M0MzNC42NDksMzUuOTM2LDM0LjgxNCwzNiwzNSwzNmg4YzAuNTUzLDAsMy0yLjQ0NywzLTN2LTlDNDYsMjMuNDQ3LDQ1LjU1MywyMyw0NSwyM3oiLz4mI3hhOwk8L2c+JiN4YTs8L2c+JiN4YTs8ZyBpZD0ib3V0bGluZV8zM18iPiYjeGE7CTxnPiYjeGE7CQk8cGF0aCBmaWxsPSIjMzg0RDY4IiBkPSJNMjEuMjgxLDMxLjM2MmMtMC4zNzUsMC4zNzMtMC4zNzUsMC45NzgsMCwxLjM1MXMwLjk4MiwwLjM3MywxLjM1NywwbDQuMDczLTQuMDUzICAgIGMwLjM3NC0wLjM3MywwLjM3NC0wLjk3OCwwLTEuMzUxbC00LjA3My00LjA1M2MtMC4zNzUtMC4zNzMtMC45ODItMC4zNzMtMS4zNTcsMHMtMC4zNzUsMC45NzgsMCwxLjM1MUwyMy42ODYsMjdIMTYgICAgYy0xLjY1NiwwLTMtMS4zNDMtMy0zdi00YzAtMC41NTMtMC40NDctMS0xLTFzLTEsMC40NDctMSwxdjRjMCwyLjc2MiwyLjIzOCw1LDUsNWg3LjY1NUwyMS4yODEsMzEuMzYyeiBNNDEsMjYgICAgYzAuNTUzLDAsMS0wLjQ0NywxLTFzLTAuNDQ3LTEtMS0xaC0yYy0wLjU1MywwLTEsMC40NDctMSwxczAuNDQ3LDEsMSwxSDQxeiBNMTMsMzVjLTEuNjU2LDAtMywxLjM0My0zLDNzMS4zNDQsMywzLDNzMy0xLjM0MywzLTMgICAgUzE0LjY1NiwzNSwxMywzNXogTTEzLDM5Yy0wLjU1MywwLTEtMC40NDctMS0xczAuNDQ3LTEsMS0xczEsMC40NDcsMSwxUzEzLjU1MywzOSwxMywzOXogTTI4LDM1SDE4Yy0wLjU1MywwLTEsMC40NDctMSwxICAgIHMwLjQ0NywxLDEsMWgxMGMwLjU1MywwLDEtMC40NDcsMS0xUzI4LjU1MywzNSwyOCwzNXogTTQyLDIwaC0yYy0xLjEwNCwwLTItMC44OTYtMi0ybC0yLTdjMC0yLjIwOS0xLjc5MS00LTQtNEgzICAgIEMyLjQ0Nyw3LDIsNy40NDcsMiw4djI4YzAsMC41NTMsMC40NDcsMSwxLDFoNWMwLjU1MywwLDEtMC40NDcsMS0xcy0wLjQ0Ny0xLTEtMUg0VjloMjhjMS4xMDQsMCwyLDAuODk2LDIsMmwyLDcgICAgYzAsMi4yMDksMS43OTEsNCw0LDRoMmMxLjEwNCwwLDIsMC44OTYsMiwydjljMCwxLjEwNC0wLjg5NiwyLTIsMmgtNGMtMC41NTMsMC0xLDAuNDQ3LTEsMXMwLjQ0NywxLDEsMWg0YzIuMjA5LDAsNC0xLjc5MSw0LTR2LTkgICAgQzQ2LDIxLjc5MSw0NC4yMDksMjAsNDIsMjB6IE0zMiwyMmMxLjEwNCwwLDItMC44OTYsMi0ybC0yLTdjMC0xLjEwNC0wLjg5Ni0yLTItMmgtNGMtMS4xMDQsMC0yLDAuODk2LTIsMnY3YzAsMS4xMDQsMC44OTYsMiwyLDIgICAgSDMyeiBNMjYsMTNoNGwyLDdoLTZWMTN6IE0zMywzNWMtMS42NTYsMC0zLDEuMzQzLTMsM3MxLjM0NCwzLDMsM3MzLTEuMzQzLDMtM1MzNC42NTYsMzUsMzMsMzV6IE0zMywzOWMtMC41NTMsMC0xLTAuNDQ3LTEtMSAgICBzMC40NDctMSwxLTFzMSwwLjQ0NywxLDFTMzMuNTUzLDM5LDMzLDM5eiIvPiYjeGE7CTwvZz4mI3hhOzwvZz4mI3hhOzwvc3ZnPg==" vertex="1" parent="CEn9OiNNHKl83sFhhU51-1">
          <mxGeometry x="830" y="310" width="48" height="48" as="geometry" />
        </mxCell>
        <mxCell id="yWbJDpuW-EyNwiIPlHIR-1" style="edgeStyle=orthogonalEdgeStyle;rounded=0;orthogonalLoop=1;jettySize=auto;html=1;" edge="1" parent="CEn9OiNNHKl83sFhhU51-1" source="TlFFVeA60dL-8Oulgm2p-5" target="yWbJDpuW-EyNwiIPlHIR-0">
          <mxGeometry relative="1" as="geometry" />
        </mxCell>
        <mxCell id="TlFFVeA60dL-8Oulgm2p-5" value="Rejected Material" style="shape=image;verticalLabelPosition=bottom;verticalAlign=top;aspect=fixed;image=data:image/svg+xml,PHN2ZyB4bWxucz0iaHR0cDovL3d3dy53My5vcmcvMjAwMC9zdmciIHhtbG5zOnhsaW5rPSJodHRwOi8vd3d3LnczLm9yZy8xOTk5L3hsaW5rIiB2ZXJzaW9uPSIxLjEiIGlkPSJMYXllcl8xIiB4PSIwcHgiIHk9IjBweCIgd2lkdGg9IjQ4cHgiIGhlaWdodD0iNDhweCIgdmlld0JveD0iMCAwIDQ4IDQ4IiBlbmFibGUtYmFja2dyb3VuZD0ibmV3IDAgMCA0OCA0OCIgeG1sOnNwYWNlPSJwcmVzZXJ2ZSI+JiN4YTs8ZyBpZD0iY29sb3JfNDlfIj4mI3hhOwk8Zz4mI3hhOwkJPHBhdGggZmlsbD0iI0YxNjM2MiIgZD0iTTQzLjk4OCwxMi41MDhoLTd2MTJjMCwwLjU1My0wLjQ0OCwxLTEsMWMtMC4yMDYsMC0wLjM4Ni0wLjA3Ny0wLjU0NC0wLjE4NGwtMS40NTYtMC44MTZsLTEuNDU2LDAuODE2ICAgIGMtMC4xNTksMC4xMDYtMC4zMzksMC4xODQtMC41NDQsMC4xODRjLTAuNTUyLDAtMS0wLjQ0Ny0xLTF2LTEyaC0xMGMtMC41NTIsMC0xLDAuNDQ3LTEsMXYyM2MwLDAuNTUzLDAuNDQ4LDEsMSwxaDIzICAgIGMwLjU1MiwwLDEtMC40NDcsMS0xdi0yM0M0NC45ODgsMTIuOTU1LDQ0LjU0LDEyLjUwOCw0My45ODgsMTIuNTA4eiIvPiYjeGE7CTwvZz4mI3hhOzwvZz4mI3hhOzxnIGlkPSJvdXRsaW5lXzQ3XyI+JiN4YTsJPGc+JiN4YTsJCTxwYXRoIGZpbGw9IiMzODRENjgiIGQ9Ik00LjQ2NSwxNS41MDhsNC4yMTMtNC4yMzdjMC40MDQtMC40MDcsMC40MDQtMS4wNjcsMC0xLjQ3NGMtMC40MDQtMC40MDctMS4wNi0wLjQwNy0xLjQ2NCwwbC00Ljg3LDQuODk3ICAgIGMtMC4xMjgsMC4xMjktMC4yMDEsMC4yODYtMC4yNDgsMC40NWMtMC4xNjEsMC4zOC0wLjA5MSwwLjgzNSwwLjIxNywxLjE0Nmw0Ljg3LDQuODk3YzAuNDA0LDAuNDA3LDEuMDYsMC40MDcsMS40NjQsMCAgICBjMC40MDUtMC40MDYsMC40MDUtMS4wNjYsMC0xLjQ3NEw0LjQ2NSwxNS41MDh6IE0xMS40NTksMTYuNTA4aDQuNTI5YzMuODY2LDAsNywzLjEzNCw3LDd2MTBjMCwwLjU1MywwLjQ0OCwxLDEsMXMxLTAuNDQ3LDEtMSAgICB2LTEwYzAtNC45NzEtNC4wMjktOS05LTloLTQuNTI5bDMuMjE5LTMuMjM3YzAuNDA0LTAuNDA3LDAuNDA0LTEuMDY3LDAtMS40NzRjLTAuNDA0LTAuNDA3LTEuMDYtMC40MDctMS40NjQsMGwtNC44Nyw0Ljg5NyAgICBjLTAuMTI4LDAuMTI5LTAuMjAxLDAuMjg2LTAuMjQ4LDAuNDVjLTAuMTYxLDAuMzgtMC4wOTEsMC44MzUsMC4yMTcsMS4xNDZsNC44Nyw0Ljg5N2MwLjQwNCwwLjQwNywxLjA2LDAuNDA3LDEuNDY0LDAgICAgYzAuNDA0LTAuNDA2LDAuNDA0LTEuMDY2LDAtMS40NzRMMTEuNDU5LDE2LjUwOHogTTQ0Ljk4OCw5LjUwOGgtMTFjLTAuNTUyLDAtMSwwLjQ0Ny0xLDFWMjAuNjRsLTEuNDQ1LTAuOTY0bC0wLjAxLDAuMDE2ICAgIGMtMC4xNTktMC4xMDYtMC4zMzktMC4xODQtMC41NDQtMC4xODRzLTAuMzg2LDAuMDc3LTAuNTQ0LDAuMTg0bC0wLjAxLTAuMDE2bC0xLjQ0NSwwLjk2NFYxMC41MDhjMC0wLjU1My0wLjQ0OC0xLTEtMWgtNyAgICBjLTAuNTUyLDAtMSwwLjQ0Ny0xLDFzMC40NDgsMSwxLDFoNnYxMWMwLDAuNTUzLDAuNDQ4LDEsMSwxYzAuMjA2LDAsMC4zODYtMC4wNzcsMC41NDQtMC4xODRsMC4wMSwwLjAxNmwyLjQ0NS0xLjYzbDIuNDQ1LDEuNjMgICAgbDAuMDEtMC4wMTZjMC4xNTksMC4xMDYsMC4zMzksMC4xODQsMC41NDQsMC4xODRjMC41NTIsMCwxLTAuNDQ3LDEtMXYtMTFoOXYyNWgtMjZ2LTljMC0wLjU1My0wLjQ0OC0xLTEtMXMtMSwwLjQ0Ny0xLDF2MTAgICAgYzAsMC41NTMsMC40NDgsMSwxLDFoMjhjMC41NTIsMCwxLTAuNDQ3LDEtMXYtMjdDNDUuOTg4LDkuOTU1LDQ1LjU0LDkuNTA4LDQ0Ljk4OCw5LjUwOHoiLz4mI3hhOwk8L2c+JiN4YTs8L2c+JiN4YTs8L3N2Zz4=" vertex="1" parent="CEn9OiNNHKl83sFhhU51-1">
          <mxGeometry x="310" y="600" width="48" height="48" as="geometry" />
        </mxCell>
        <mxCell id="TlFFVeA60dL-8Oulgm2p-7" value="Production" style="shape=image;verticalLabelPosition=bottom;verticalAlign=top;aspect=fixed;image=data:image/svg+xml,PHN2ZyB4bWxucz0iaHR0cDovL3d3dy53My5vcmcvMjAwMC9zdmciIHhtbG5zOnhsaW5rPSJodHRwOi8vd3d3LnczLm9yZy8xOTk5L3hsaW5rIiB2ZXJzaW9uPSIxLjEiIGlkPSJMYXllcl8xIiB4PSIwcHgiIHk9IjBweCIgd2lkdGg9IjQ4cHgiIGhlaWdodD0iNDhweCIgdmlld0JveD0iMCAwIDQ4IDQ4IiBlbmFibGUtYmFja2dyb3VuZD0ibmV3IDAgMCA0OCA0OCIgeG1sOnNwYWNlPSJwcmVzZXJ2ZSI+JiN4YTs8ZyBpZD0iY29sb3JfMjNfIj4mI3hhOwk8Zz4mI3hhOwkJPHBhdGggZmlsbD0iI0ZGREE4RSIgZD0iTTQxLDI5VjdjMC0wLjU1My0wLjQ0Ny0xLTEtMUgyNHY3YzAsMC41NTMtMC40NDcsMS0xLDFoLTNjLTAuNTUzLDAtMS0wLjQ0Ny0xLTFWNmgtNSAgICBjLTAuNTUzLDAtMSwwLjQ0Ny0xLDF2MjJjMCwwLjU1MywwLjQ0NywxLDEsMWgyNkM0MC41NTMsMzAsNDEsMjkuNTUzLDQxLDI5eiBNMTAuNSwzN0M5LjExOSwzNyw4LDM4LjExOSw4LDM5LjVTOS4xMTksNDIsMTAuNSw0MiAgICBzMi41LTEuMTE5LDIuNS0yLjVTMTEuODgxLDM3LDEwLjUsMzd6IE0yMC41LDM3Yy0xLjM4MSwwLTIuNSwxLjExOS0yLjUsMi41czEuMTE5LDIuNSwyLjUsMi41czIuNS0xLjExOSwyLjUtMi41ICAgIFMyMS44ODEsMzcsMjAuNSwzN3ogTTMwLjUsMzdjLTEuMzgxLDAtMi41LDEuMTE5LTIuNSwyLjVzMS4xMTksMi41LDIuNSwyLjVzMi41LTEuMTE5LDIuNS0yLjVTMzEuODgxLDM3LDMwLjUsMzd6IE00MC41LDM3ICAgIGMtMS4zODEsMC0yLjUsMS4xMTktMi41LDIuNXMxLjExOSwyLjUsMi41LDIuNXMyLjUtMS4xMTksMi41LTIuNVM0MS44ODEsMzcsNDAuNSwzN3oiLz4mI3hhOwk8L2c+JiN4YTs8L2c+JiN4YTs8ZyBpZD0ib3V0bGluZV8yMl8iPiYjeGE7CTxnPiYjeGE7CQk8cGF0aCBmaWxsLXJ1bGU9ImV2ZW5vZGQiIGNsaXAtcnVsZT0iZXZlbm9kZCIgZmlsbD0iIzM4NEQ2OCIgZD0iTTIyLDM4YzAtMS42NTctMS4zNDQtMy0zLTNzLTMsMS4zNDMtMywzczEuMzQ0LDMsMywzICAgIFMyMiwzOS42NTcsMjIsMzh6IE0xOCwzOGMwLTAuNTUzLDAuNDQ3LTEsMS0xczEsMC40NDcsMSwxcy0wLjQ0NywxLTEsMVMxOCwzOC41NTMsMTgsMzh6IE00MiwzOGMwLTEuNjU3LTEuMzQzLTMtMy0zICAgIHMtMywxLjM0My0zLDNzMS4zNDMsMywzLDNTNDIsMzkuNjU3LDQyLDM4eiBNMzgsMzhjMC0wLjU1MywwLjQ0Ny0xLDEtMXMxLDAuNDQ3LDEsMXMtMC40NDcsMS0xLDFTMzgsMzguNTUzLDM4LDM4eiBNMzIsMzggICAgYzAtMS42NTctMS4zNDMtMy0zLTNzLTMsMS4zNDMtMywzczEuMzQzLDMsMywzUzMyLDM5LjY1NywzMiwzOHogTTI4LDM4YzAtMC41NTMsMC40NDctMSwxLTFzMSwwLjQ0NywxLDFzLTAuNDQ3LDEtMSwxICAgIFMyOCwzOC41NTMsMjgsMzh6IE0xMiwzOGMwLTEuNjU3LTEuMzQ0LTMtMy0zcy0zLDEuMzQzLTMsM3MxLjM0NCwzLDMsM1MxMiwzOS42NTcsMTIsMzh6IE04LDM4YzAtMC41NTMsMC40NDctMSwxLTFzMSwwLjQ0NywxLDEgICAgcy0wLjQ0NywxLTEsMVM4LDM4LjU1Myw4LDM4eiBNMzksMzFIM2MtMC41NTMsMC0xLDAuNDQ3LTEsMXMwLjQ0NywxLDEsMWgzNmMyLjc2MiwwLDUsMi4yMzgsNSw1cy0yLjIzOCw1LTUsNUgzICAgIGMtMC41NTMsMC0xLDAuNDQ3LTEsMXMwLjQ0NywxLDEsMWgzNmMzLjg2NiwwLDctMy4xMzQsNy03UzQyLjg2NiwzMSwzOSwzMXogTTEwLDI5aDI4YzAuNTUzLDAsMS0wLjQ0NywxLTFWNGMwLTAuNTUzLTAuNDQ3LTEtMS0xICAgIEgxMEM5LjQ0NywzLDksMy40NDcsOSw0djI0QzksMjguNTUzLDkuNDQ3LDI5LDEwLDI5eiBNMjksNmMwLTAuNTUzLDAuNDQ3LTEsMS0xaDd2MjJoLTdjLTAuNTUzLDAtMS0wLjQ0Ny0xLTFWNnogTTE4LDVoMnY2aC0yVjV6ICAgICBNMTEsNWg1djdjMCwwLjU1MywwLjQ0NywxLDEsMWg0YzAuNTUzLDAsMS0wLjQ0NywxLTFWNWg0YzAuNTUzLDAsMSwwLjQ0NywxLDF2MjBjMCwwLjU1My0wLjQ0NywxLTEsMUgxMVY1eiIvPiYjeGE7CTwvZz4mI3hhOzwvZz4mI3hhOzwvc3ZnPg==" vertex="1" parent="CEn9OiNNHKl83sFhhU51-1">
          <mxGeometry x="180" y="310" width="48" height="48" as="geometry" />
        </mxCell>
        <mxCell id="yWbJDpuW-EyNwiIPlHIR-3" style="edgeStyle=orthogonalEdgeStyle;rounded=0;orthogonalLoop=1;jettySize=auto;html=1;" edge="1" parent="CEn9OiNNHKl83sFhhU51-1" source="yWbJDpuW-EyNwiIPlHIR-0" target="yWbJDpuW-EyNwiIPlHIR-2">
          <mxGeometry relative="1" as="geometry" />
        </mxCell>
        <mxCell id="yWbJDpuW-EyNwiIPlHIR-0" value="Return Supplier" style="shape=image;verticalLabelPosition=bottom;verticalAlign=top;aspect=fixed;image=data:image/svg+xml,PHN2ZyB4bWxucz0iaHR0cDovL3d3dy53My5vcmcvMjAwMC9zdmciIHhtbG5zOnhsaW5rPSJodHRwOi8vd3d3LnczLm9yZy8xOTk5L3hsaW5rIiB2ZXJzaW9uPSIxLjEiIGlkPSJMYXllcl8xIiB4PSIwcHgiIHk9IjBweCIgd2lkdGg9IjQ4cHgiIGhlaWdodD0iNDhweCIgdmlld0JveD0iMCAwIDQ4IDQ4IiBlbmFibGUtYmFja2dyb3VuZD0ibmV3IDAgMCA0OCA0OCIgeG1sOnNwYWNlPSJwcmVzZXJ2ZSI+JiN4YTs8ZyBpZD0iY29sb3JfNTFfIj4mI3hhOwk8Zz4mI3hhOwkJPHBhdGggZmlsbD0iIzg5OENDNSIgZD0iTTQzLDZoLTV2NGMwLDEuMTA0LTAuODk2LDItMiwyaC0yYy0xLjEwNCwwLTItMC44OTYtMi0yVjZIMTh2NGMwLDEuMTA0LTAuODk2LDItMiwyaC0yICAgIGMtMS4xMDQsMC0yLTAuODk2LTItMlY2SDlDOC40NDcsNiw4LDYuNDQ3LDgsN3YzOGMwLDAuNTUzLDAuNDQ3LDEsMSwxaDM0YzAuNTUzLDAsMS0wLjQ0NywxLTFWN0M0NCw2LjQ0Nyw0My41NTMsNiw0Myw2eiIvPiYjeGE7CTwvZz4mI3hhOzwvZz4mI3hhOzxnIGlkPSJvdXRsaW5lXzQ5XyI+JiN4YTsJPGc+JiN4YTsJCTxwYXRoIGZpbGw9IiMzODRENjgiIGQ9Ik0xNS43MTUsMjguMjg1Yy0wLjM3NS0wLjM3NS0wLjk4Mi0wLjM3NS0xLjM1NywwTDEzLDI5LjY0M2wtMS4zNTctMS4zNTcgICAgYy0wLjM3NS0wLjM3NS0wLjk4Mi0wLjM3NS0xLjM1NywwYy0wLjM3NSwwLjM3NC0wLjM3NSwwLjk4MiwwLDEuMzU3TDExLjY0MywzMWwtMS4zNTcsMS4zNTdjLTAuMzc1LDAuMzc1LTAuMzc1LDAuOTgzLDAsMS4zNTcgICAgYzAuMzc1LDAuMzc1LDAuOTgyLDAuMzc1LDEuMzU3LDBMMTMsMzIuMzU3bDEuMzU3LDEuMzU3YzAuMzc1LDAuMzc1LDAuOTgyLDAuMzc1LDEuMzU3LDBjMC4zNzUtMC4zNzQsMC4zNzUtMC45ODIsMC0xLjM1NyAgICBMMTQuMzU3LDMxbDEuMzU3LTEuMzU3QzE2LjA5LDI5LjI2OCwxNi4wOSwyOC42NTksMTUuNzE1LDI4LjI4NXogTTE1LjcxNSwxOC4yODVjLTAuMzc1LTAuMzc1LTAuOTgyLTAuMzc1LTEuMzU3LDBMMTMsMTkuNjQzICAgIGwtMS4zNTctMS4zNTdjLTAuMzc1LTAuMzc1LTAuOTgyLTAuMzc1LTEuMzU3LDBjLTAuMzc1LDAuMzc0LTAuMzc1LDAuOTgyLDAsMS4zNTdMMTEuNjQzLDIxbC0xLjM1NywxLjM1NyAgICBjLTAuMzc1LDAuMzc1LTAuMzc1LDAuOTgyLDAsMS4zNTdzMC45ODIsMC4zNzUsMS4zNTcsMEwxMywyMi4zNTdsMS4zNTcsMS4zNTdjMC4zNzUsMC4zNzUsMC45ODIsMC4zNzUsMS4zNTcsMCAgICBzMC4zNzUtMC45ODIsMC0xLjM1N0wxNC4zNTcsMjFsMS4zNTctMS4zNTdDMTYuMDksMTkuMjY4LDE2LjA5LDE4LjY1OSwxNS43MTUsMTguMjg1eiBNNDEsNmgtNVY0YzAtMS4xMDQtMC44OTYtMi0yLTJoLTIgICAgYy0xLjEwNCwwLTIsMC44OTYtMiwydjJIMTZWNGMwLTEuMTA0LTAuODk2LTItMi0yaC0yYy0xLjEwNCwwLTIsMC44OTYtMiwydjJINUM0LjQ0Nyw2LDQsNi40NDcsNCw3djM4YzAsMC41NTMsMC40NDcsMSwxLDFoMzYgICAgYzAuNTUzLDAsMS0wLjQ0NywxLTFWN0M0Miw2LjQ0Nyw0MS41NTMsNiw0MSw2eiBNMzIsNWMwLTAuNTUzLDAuNDQ3LTEsMS0xczEsMC40NDcsMSwxdjRjMCwwLjU1My0wLjQ0NywxLTEsMXMtMS0wLjQ0Ny0xLTFWNXogICAgIE0xMiw1YzAtMC41NTMsMC40NDctMSwxLTFzMSwwLjQ0NywxLDF2NGMwLDAuNTUzLTAuNDQ3LDEtMSwxcy0xLTAuNDQ3LTEtMVY1eiBNNDAsNDRINlY4aDR2MmMwLDEuMTA0LDAuODk2LDIsMiwyaDIgICAgYzEuMTA0LDAsMi0wLjg5NiwyLTJWOGgxNHYyYzAsMS4xMDQsMC44OTYsMiwyLDJoMmMxLjEwNCwwLDItMC44OTYsMi0yVjhoNFY0NHogTTM0LDIwSDIwYy0wLjU1MywwLTEsMC40NDctMSwxczAuNDQ3LDEsMSwxaDE0ICAgIGMwLjU1MywwLDEtMC40NDcsMS0xUzM0LjU1MywyMCwzNCwyMHogTTMwLDMwSDIwYy0wLjU1MywwLTEsMC40NDctMSwxczAuNDQ3LDEsMSwxaDEwYzAuNTUzLDAsMS0wLjQ0NywxLTFTMzAuNTUzLDMwLDMwLDMweiIvPiYjeGE7CTwvZz4mI3hhOzwvZz4mI3hhOzwvc3ZnPg==" vertex="1" parent="CEn9OiNNHKl83sFhhU51-1">
          <mxGeometry x="520" y="600" width="48" height="48" as="geometry" />
        </mxCell>
        <mxCell id="yWbJDpuW-EyNwiIPlHIR-2" value="return to supplier" style="shape=image;verticalLabelPosition=bottom;verticalAlign=top;aspect=fixed;image=data:image/svg+xml,PHN2ZyB4bWxucz0iaHR0cDovL3d3dy53My5vcmcvMjAwMC9zdmciIHhtbG5zOnhsaW5rPSJodHRwOi8vd3d3LnczLm9yZy8xOTk5L3hsaW5rIiB2ZXJzaW9uPSIxLjEiIGlkPSJMYXllcl8xIiB4PSIwcHgiIHk9IjBweCIgd2lkdGg9IjQ4cHgiIGhlaWdodD0iNDhweCIgdmlld0JveD0iMCAwIDQ4IDQ4IiBlbmFibGUtYmFja2dyb3VuZD0ibmV3IDAgMCA0OCA0OCIgeG1sOnNwYWNlPSJwcmVzZXJ2ZSI+JiN4YTs8ZyBpZD0iY29sb3JfMzNfIj4mI3hhOwk8Zz4mI3hhOwkJPHBhdGggZmlsbD0iI0YxNjM2MiIgZD0iTTQ1LDIzaC01bC00LTEyYzAtMC41NTMtMC40NDctMS0xLTFoLTFoLTVIN2MtMC41NTMsMC0xLDAuNDQ3LTEsMXYyNGMwLDAuNTUzLDAuNDQ3LDEsMSwxaDI3ICAgIGMwLjE4NiwwLDAuMzUxLTAuMDY0LDAuNS0wLjE1M0MzNC42NDksMzUuOTM2LDM0LjgxNCwzNiwzNSwzNmg4YzAuNTUzLDAsMy0yLjQ0NywzLTN2LTlDNDYsMjMuNDQ3LDQ1LjU1MywyMyw0NSwyM3oiLz4mI3hhOwk8L2c+JiN4YTs8L2c+JiN4YTs8ZyBpZD0ib3V0bGluZV8zM18iPiYjeGE7CTxnPiYjeGE7CQk8cGF0aCBmaWxsPSIjMzg0RDY4IiBkPSJNMjEuMjgxLDMxLjM2MmMtMC4zNzUsMC4zNzMtMC4zNzUsMC45NzgsMCwxLjM1MXMwLjk4MiwwLjM3MywxLjM1NywwbDQuMDczLTQuMDUzICAgIGMwLjM3NC0wLjM3MywwLjM3NC0wLjk3OCwwLTEuMzUxbC00LjA3My00LjA1M2MtMC4zNzUtMC4zNzMtMC45ODItMC4zNzMtMS4zNTcsMHMtMC4zNzUsMC45NzgsMCwxLjM1MUwyMy42ODYsMjdIMTYgICAgYy0xLjY1NiwwLTMtMS4zNDMtMy0zdi00YzAtMC41NTMtMC40NDctMS0xLTFzLTEsMC40NDctMSwxdjRjMCwyLjc2MiwyLjIzOCw1LDUsNWg3LjY1NUwyMS4yODEsMzEuMzYyeiBNNDEsMjYgICAgYzAuNTUzLDAsMS0wLjQ0NywxLTFzLTAuNDQ3LTEtMS0xaC0yYy0wLjU1MywwLTEsMC40NDctMSwxczAuNDQ3LDEsMSwxSDQxeiBNMTMsMzVjLTEuNjU2LDAtMywxLjM0My0zLDNzMS4zNDQsMywzLDNzMy0xLjM0MywzLTMgICAgUzE0LjY1NiwzNSwxMywzNXogTTEzLDM5Yy0wLjU1MywwLTEtMC40NDctMS0xczAuNDQ3LTEsMS0xczEsMC40NDcsMSwxUzEzLjU1MywzOSwxMywzOXogTTI4LDM1SDE4Yy0wLjU1MywwLTEsMC40NDctMSwxICAgIHMwLjQ0NywxLDEsMWgxMGMwLjU1MywwLDEtMC40NDcsMS0xUzI4LjU1MywzNSwyOCwzNXogTTQyLDIwaC0yYy0xLjEwNCwwLTItMC44OTYtMi0ybC0yLTdjMC0yLjIwOS0xLjc5MS00LTQtNEgzICAgIEMyLjQ0Nyw3LDIsNy40NDcsMiw4djI4YzAsMC41NTMsMC40NDcsMSwxLDFoNWMwLjU1MywwLDEtMC40NDcsMS0xcy0wLjQ0Ny0xLTEtMUg0VjloMjhjMS4xMDQsMCwyLDAuODk2LDIsMmwyLDcgICAgYzAsMi4yMDksMS43OTEsNCw0LDRoMmMxLjEwNCwwLDIsMC44OTYsMiwydjljMCwxLjEwNC0wLjg5NiwyLTIsMmgtNGMtMC41NTMsMC0xLDAuNDQ3LTEsMXMwLjQ0NywxLDEsMWg0YzIuMjA5LDAsNC0xLjc5MSw0LTR2LTkgICAgQzQ2LDIxLjc5MSw0NC4yMDksMjAsNDIsMjB6IE0zMiwyMmMxLjEwNCwwLDItMC44OTYsMi0ybC0yLTdjMC0xLjEwNC0wLjg5Ni0yLTItMmgtNGMtMS4xMDQsMC0yLDAuODk2LTIsMnY3YzAsMS4xMDQsMC44OTYsMiwyLDIgICAgSDMyeiBNMjYsMTNoNGwyLDdoLTZWMTN6IE0zMywzNWMtMS42NTYsMC0zLDEuMzQzLTMsM3MxLjM0NCwzLDMsM3MzLTEuMzQzLDMtM1MzNC42NTYsMzUsMzMsMzV6IE0zMywzOWMtMC41NTMsMC0xLTAuNDQ3LTEtMSAgICBzMC40NDctMSwxLTFzMSwwLjQ0NywxLDFTMzMuNTUzLDM5LDMzLDM5eiIvPiYjeGE7CTwvZz4mI3hhOzwvZz4mI3hhOzwvc3ZnPg==" vertex="1" parent="CEn9OiNNHKl83sFhhU51-1">
          <mxGeometry x="700" y="600" width="48" height="48" as="geometry" />
        </mxCell>
      </root>
    </mxGraphModel>
  </diagram>
</mxfile>
